<svg width="64" height="58" viewBox="0 0 64 58" fill="none" xmlns="http://www.w3.org/2000/svg">
<mask id="mask0_18_49" style="mask-type:alpha" maskUnits="userSpaceOnUse" x="0" y="0" width="64" height="58">
<rect width="64" height="58" fill="#D9D9D9"/>
</mask>
<g mask="url(#mask0_18_49)">
<path d="M16 45.9167H48V41.0833H16V45.9167ZM16 36.25H48V31.4167H16V36.25ZM16 26.5833H48V24.4083L44.1333 21.75H19.8667L16 24.4083V26.5833ZM26.8 16.9167H37.2L32 13.3521L26.8 16.9167ZM10.6667 50.75V28.0937L5.86666 31.4167L2.66666 27.55L10.6667 21.9917V14.5H16V18.3062L32 7.24999L61.3333 27.55L58.1333 31.3562L53.3333 28.0937V50.75H10.6667ZM10.6667 12.0833C10.6667 10.0694 11.4444 8.35763 13 6.94791C14.5556 5.53818 16.4444 4.83332 18.6667 4.83332C19.4222 4.83332 20.0556 4.60173 20.5667 4.13853C21.0778 3.67534 21.3333 3.10138 21.3333 2.41666H26.6667C26.6667 4.43055 25.8889 6.14235 24.3333 7.55207C22.7778 8.96179 20.8889 9.66666 18.6667 9.66666C17.9111 9.66666 17.2778 9.89825 16.7667 10.3614C16.2556 10.8246 16 11.3986 16 12.0833H10.6667Z" fill="#00738C"/>
</g>
</svg>
