<svg width="65" height="58" viewBox="0 0 65 58" fill="none" xmlns="http://www.w3.org/2000/svg">
<mask id="mask0_18_67" style="mask-type:alpha" maskUnits="userSpaceOnUse" x="0" y="0" width="65" height="58">
<rect width="65" height="58" fill="#D9D9D9"/>
</mask>
<g mask="url(#mask0_18_67)">
<path d="M32.5 9.66665V4.83331H59.5834V9.66665H32.5ZM32.5 19.3333V14.5H59.5834V19.3333H32.5ZM32.5 29V24.1666H59.5834V29H32.5ZM51.3229 53.1666C45.6806 53.1666 40.1059 52.0691 34.599 49.8739C29.092 47.6788 24.0816 44.5673 19.5677 40.5396C15.0538 36.5118 11.5669 32.041 9.10679 27.1271C6.64672 22.2132 5.41669 17.2389 5.41669 12.2041C5.41669 11.4791 5.68752 10.875 6.22919 10.3916C6.77085 9.90831 7.44794 9.66665 8.26044 9.66665H19.2292C19.8611 9.66665 20.4254 9.85797 20.9219 10.2406C21.4184 10.6232 21.7118 11.0764 21.8021 11.6L23.5625 20.0583C23.6528 20.7028 23.6302 21.2465 23.4948 21.6896C23.3594 22.1326 23.1111 22.5153 22.75 22.8375L16.1823 28.7583C17.0851 30.2486 18.1571 31.6885 19.3985 33.0781C20.6398 34.4677 22.0052 35.8069 23.4948 37.0958C24.8941 38.3444 26.3611 39.5024 27.8959 40.5698C29.4306 41.6371 31.0556 42.6139 32.7709 43.5L39.1354 37.8208C39.5417 37.4583 40.0721 37.1864 40.7266 37.0052C41.3811 36.8239 42.0243 36.7736 42.6563 36.8541L52 38.5458C52.632 38.7069 53.1511 38.9989 53.5573 39.4219C53.9636 39.8448 54.1667 40.318 54.1667 40.8416V50.6291C54.1667 51.3541 53.8959 51.9583 53.3542 52.4416C52.8125 52.925 52.1354 53.1666 51.3229 53.1666ZM13.6094 24.1666L18.0781 20.1791L16.9271 14.5H10.9011C11.1268 16.1514 11.4427 17.7826 11.849 19.3937C12.2552 21.0048 12.842 22.5958 13.6094 24.1666ZM37.849 45.7958C39.6094 46.4805 41.4037 47.0243 43.2318 47.4271C45.0599 47.8298 46.8993 48.0916 48.75 48.2125V42.8958L42.3854 41.7479L37.849 45.7958Z" fill="#00738C"/>
</g>
</svg>
