<svg width="640" height="640" viewBox="0 0 640 640" fill="none" xmlns="http://www.w3.org/2000/svg">
<path d="M150.784 135.376C213.542 135.376 264.476 186.31 264.476 249.068C264.476 311.826 213.542 362.76 150.784 362.76C88.0264 362.76 37.0924 311.826 37.0924 249.068C37.0924 186.31 88.0264 135.376 150.784 135.376Z" fill="#FCC31D"/>
<path d="M155.19 154.875C210.085 154.875 254.638 199.427 254.638 254.322C254.638 309.217 210.085 353.769 155.19 353.769C100.296 353.769 55.7432 309.217 55.7432 254.322C55.7432 199.427 100.296 154.875 155.19 154.875Z" fill="#FFF312"/>
<path d="M190.407 194.296L320.464 249.502L261.721 387.892L131.664 332.686L190.407 194.296Z" fill="#828383"/>
<path d="M186.219 195.492L315.811 250.501L257.068 388.891L127.476 333.882L186.219 195.492Z" fill="#BCC2C6"/>
<path d="M233.046 228.691C237.808 230.712 240.029 236.211 238.008 240.973L230.425 258.837C228.404 263.599 222.905 265.82 218.143 263.799L184.05 249.327C179.288 247.306 177.066 241.807 179.088 237.045L186.67 219.181C188.692 214.42 194.19 212.198 198.952 214.219L233.046 228.691Z" fill="#0C4ABF"/>
<path d="M215.03 269.248C219.792 271.269 222.014 276.768 219.992 281.53L212.409 299.394C210.388 304.156 204.889 306.377 200.128 304.356L166.034 289.884C161.272 287.863 159.051 282.364 161.072 277.602L168.655 259.738C170.676 254.976 176.175 252.755 180.936 254.776L215.03 269.248Z" fill="#0C75BF"/>
<path d="M274.286 293.759C279.048 295.78 281.269 301.279 279.248 306.041L271.665 323.905C269.644 328.666 264.145 330.888 259.383 328.867L225.29 314.395C220.528 312.374 218.306 306.875 220.328 302.113L227.91 284.249C229.932 279.487 235.43 277.266 240.192 279.287L274.286 293.759Z" fill="#0C4ABF"/>
<path d="M292.335 252.228C297.097 254.249 299.318 259.748 297.297 264.51L289.714 282.374C287.693 287.135 282.194 289.357 277.433 287.336L243.339 272.864C238.577 270.843 236.355 265.344 238.377 260.582L245.96 242.718C247.981 237.956 253.48 235.735 258.241 237.756L292.335 252.228Z" fill="#0C75BF"/>
<path d="M196.806 309.127C201.568 311.149 203.789 316.647 201.768 321.409L194.185 339.273C192.164 344.035 186.665 346.257 181.903 344.235L147.81 329.763C143.048 327.742 140.826 322.243 142.847 317.482L150.43 299.618C152.452 294.856 157.95 292.634 162.712 294.655L196.806 309.127Z" fill="#0C4ABF"/>
<path d="M255.854 333.17C260.616 335.191 262.838 340.69 260.817 345.452L253.234 363.316C251.212 368.078 245.714 370.299 240.952 368.278L206.858 353.806C202.096 351.785 199.875 346.286 201.896 341.524L209.479 323.66C211.5 318.898 216.999 316.677 221.761 318.698L255.854 333.17Z" fill="#0C75BF"/>
<path d="M165.816 428.47H120.861V371.77H165.816V383.11H135.441V394.045H159.336V405.385H135.441V417.13H165.816V428.47ZM209.537 427.66C199.439 428.74 190.529 429.28 182.807 429.28C179.135 429.28 176.192 428.173 173.978 425.959C171.764 423.745 170.657 420.802 170.657 417.13V398.5C170.657 394.45 171.791 391.291 174.059 389.023C176.381 386.701 179.567 385.54 183.617 385.54H209.537V396.475H188.072C185.912 396.475 184.832 397.555 184.832 399.715V415.51C184.832 416.32 185.102 416.995 185.642 417.535C186.182 418.075 186.857 418.345 187.667 418.345C192.527 418.345 199.817 417.94 209.537 417.13V427.66ZM259.741 416.32C259.741 420.37 258.58 423.556 256.258 425.878C253.99 428.146 250.831 429.28 246.781 429.28H228.151C224.101 429.28 220.915 428.146 218.593 425.878C216.325 423.556 215.191 420.37 215.191 416.32V397.69C215.191 393.64 216.325 390.481 218.593 388.213C220.915 385.891 224.101 384.73 228.151 384.73H246.781C250.831 384.73 253.99 385.891 256.258 388.213C258.58 390.481 259.741 393.64 259.741 397.69V416.32ZM245.566 398.905C245.566 396.745 244.486 395.665 242.326 395.665H232.606C230.446 395.665 229.366 396.745 229.366 398.905V415.105C229.366 417.265 230.446 418.345 232.606 418.345H242.326C244.486 418.345 245.566 417.265 245.566 415.105V398.905ZM266.131 416.725C280.927 417.535 290.944 417.94 296.182 417.94C297.424 417.94 298.396 417.589 299.098 416.887C299.854 416.131 300.232 415.132 300.232 413.89V406.6H281.602C275.932 406.6 271.801 405.331 269.209 402.793C266.671 400.201 265.402 396.07 265.402 390.4V387.97C265.402 382.3 266.671 378.196 269.209 375.658C271.801 373.066 275.932 371.77 281.602 371.77H310.033V383.11H284.842C281.602 383.11 279.982 384.73 279.982 387.97V389.59C279.982 392.83 281.602 394.45 284.842 394.45H299.422C304.714 394.45 308.602 395.692 311.086 398.176C313.57 400.66 314.812 404.548 314.812 409.84V413.89C314.812 419.182 313.57 423.07 311.086 425.554C308.602 428.038 304.714 429.28 299.422 429.28C296.668 429.28 293.752 429.226 290.674 429.118L283.222 428.794C277.714 428.524 272.017 428.146 266.131 427.66V416.725ZM365.026 416.32C365.026 420.37 363.865 423.556 361.543 425.878C359.275 428.146 356.116 429.28 352.066 429.28H333.436C329.386 429.28 326.2 428.146 323.878 425.878C321.61 423.556 320.476 420.37 320.476 416.32V397.69C320.476 393.64 321.61 390.481 323.878 388.213C326.2 385.891 329.386 384.73 333.436 384.73H352.066C356.116 384.73 359.275 385.891 361.543 388.213C363.865 390.481 365.026 393.64 365.026 397.69V416.32ZM350.851 398.905C350.851 396.745 349.771 395.665 347.611 395.665H337.891C335.731 395.665 334.651 396.745 334.651 398.905V415.105C334.651 417.265 335.731 418.345 337.891 418.345H347.611C349.771 418.345 350.851 417.265 350.851 415.105V398.905ZM394.176 428.47C390.558 429.01 387.102 429.28 383.808 429.28C380.568 429.28 377.841 428.173 375.627 425.959C373.413 423.745 372.306 420.802 372.306 417.13V371.77H386.481V415.105C386.481 415.915 386.751 416.59 387.291 417.13C387.831 417.67 388.506 417.94 389.316 417.94H394.176V428.47ZM416.843 417.94C419.705 417.94 422.945 417.4 426.563 416.32V411.46H414.818C414.008 411.46 413.333 411.73 412.793 412.27C412.253 412.81 411.983 413.485 411.983 414.295V415.105C411.983 415.915 412.253 416.59 412.793 417.13C413.333 417.67 414.008 417.94 414.818 417.94H416.843ZM401.858 386.35C411.74 385.27 420.65 384.73 428.588 384.73C432.26 384.73 435.203 385.837 437.417 388.051C439.631 390.265 440.738 393.208 440.738 396.88V428.47H428.183L427.373 424.42C424.835 426.094 422.216 427.336 419.516 428.146C416.87 428.902 414.629 429.28 412.793 429.28H409.958C406.286 429.28 403.343 428.173 401.129 425.959C398.915 423.745 397.808 420.802 397.808 417.13V413.485C397.808 409.813 398.915 406.87 401.129 404.656C403.343 402.442 406.286 401.335 409.958 401.335H426.563V398.095C426.563 397.285 426.293 396.61 425.753 396.07C425.213 395.53 424.538 395.26 423.728 395.26C420.218 395.26 416.33 395.422 412.064 395.746C407.852 396.07 404.45 396.313 401.858 396.475V386.35ZM472.711 397.285C469.309 397.285 465.799 398.095 462.181 399.715V428.47H448.006V385.54H460.561L461.371 390.805C466.015 386.755 470.875 384.73 475.951 384.73H479.596V397.285H472.711ZM503.083 387.16V428.47H488.908V398.095H482.833V387.16H503.083ZM488.908 370.96H503.083V382.3H488.908V370.96ZM548.873 396.475L526.598 417.535H548.873V428.47H508.778V417.535L531.053 396.475H508.778V385.54H548.873V396.475Z" fill="#484848"/>
<path d="M122.737 476.175H117.402V462.611H122.737V463.928H118.877V468.428H122.505V469.755H118.877V474.829H122.737V476.175ZM128.498 465.802C129.302 465.802 129.911 466.084 130.325 466.647C130.74 467.21 130.947 468.072 130.947 469.235V476.175H129.518V469.523C129.518 468.7 129.41 468.085 129.194 467.676C128.983 467.268 128.649 467.064 128.192 467.064C127.524 467.064 127.035 467.361 126.726 467.955C126.417 468.549 126.262 469.501 126.262 470.812V476.175H124.833V465.988H125.974L126.132 467.463H126.225C126.367 467.123 126.55 466.829 126.772 466.582C126.995 466.334 127.252 466.143 127.542 466.007C127.833 465.87 128.151 465.802 128.498 465.802ZM136.207 465.821C136.9 465.821 137.469 466.022 137.914 466.424C138.366 466.826 138.7 467.367 138.916 468.048C139.139 468.728 139.25 469.486 139.25 470.321V471.332H134.398C134.411 472.6 134.605 473.552 134.983 474.189C135.366 474.826 135.941 475.145 136.708 475.145C137.073 475.145 137.432 475.089 137.784 474.978C138.137 474.866 138.502 474.687 138.879 474.44V475.72C138.527 475.936 138.159 476.097 137.775 476.202C137.392 476.308 136.983 476.36 136.551 476.36C135.703 476.36 135.017 476.134 134.491 475.683C133.965 475.225 133.582 474.604 133.341 473.818C133.106 473.026 132.988 472.133 132.988 471.137C132.988 469.999 133.109 469.034 133.35 468.242C133.591 467.451 133.95 466.851 134.426 466.443C134.908 466.028 135.502 465.821 136.207 465.821ZM136.207 466.99C135.669 466.99 135.249 467.253 134.946 467.779C134.642 468.298 134.466 469.102 134.417 470.191H137.914C137.914 469.615 137.852 469.087 137.729 468.604C137.611 468.116 137.426 467.726 137.172 467.435C136.925 467.138 136.603 466.99 136.207 466.99ZM144.677 465.812C144.82 465.812 144.962 465.824 145.104 465.849C145.246 465.867 145.395 465.901 145.55 465.951L145.327 467.417C145.216 467.367 145.098 467.333 144.974 467.315C144.851 467.296 144.718 467.287 144.575 467.287C144.297 467.287 144.04 467.38 143.805 467.565C143.577 467.745 143.379 467.998 143.212 468.326C143.045 468.654 142.915 469.034 142.822 469.467C142.735 469.9 142.695 470.367 142.701 470.868V476.175H141.273V465.988H142.386L142.581 467.797H142.674C142.816 467.407 142.983 467.064 143.175 466.767C143.366 466.47 143.586 466.238 143.833 466.072C144.087 465.898 144.368 465.812 144.677 465.812ZM148.982 480.739C148.011 480.739 147.247 480.492 146.691 479.997C146.134 479.502 145.856 478.809 145.856 477.919C145.856 477.22 146.023 476.648 146.357 476.202C146.691 475.757 147.121 475.46 147.646 475.312C147.386 475.188 147.173 475.002 147.006 474.755C146.845 474.508 146.765 474.214 146.765 473.874C146.765 473.527 146.845 473.212 147.006 472.927C147.173 472.643 147.405 472.371 147.702 472.111C147.306 471.876 146.994 471.499 146.765 470.979C146.536 470.46 146.422 469.863 146.422 469.189C146.422 468.496 146.533 467.899 146.756 467.398C146.984 466.891 147.312 466.498 147.739 466.22C148.166 465.942 148.676 465.802 149.27 465.802C149.455 465.802 149.619 465.812 149.761 465.83C149.904 465.849 150.031 465.874 150.142 465.905C150.253 465.935 150.352 465.973 150.439 466.016H152.962V466.934L151.598 467.101C151.772 467.38 151.898 467.698 151.979 468.057C152.059 468.409 152.099 468.768 152.099 469.133C152.099 470.178 151.852 471.001 151.357 471.601C150.862 472.195 150.163 472.491 149.26 472.491C148.982 472.491 148.76 472.464 148.593 472.408C148.426 472.563 148.277 472.739 148.147 472.937C148.024 473.135 147.962 473.379 147.962 473.67C147.962 473.849 148.002 474.007 148.082 474.143C148.169 474.279 148.293 474.384 148.453 474.458C148.614 474.532 148.812 474.57 149.047 474.57H150.513C151.274 474.57 151.858 474.789 152.266 475.228C152.681 475.667 152.888 476.335 152.888 477.232C152.888 478.345 152.551 479.208 151.877 479.821C151.209 480.433 150.244 480.739 148.982 480.739ZM149.093 479.607C149.632 479.607 150.08 479.524 150.439 479.357C150.804 479.196 151.076 478.948 151.255 478.614C151.441 478.28 151.533 477.866 151.533 477.371C151.533 476.969 151.468 476.66 151.339 476.444C151.215 476.227 151.036 476.079 150.801 475.998C150.565 475.918 150.284 475.878 149.956 475.878H148.741C148.456 475.878 148.197 475.943 147.962 476.072C147.733 476.196 147.55 476.397 147.414 476.676C147.278 476.954 147.21 477.325 147.21 477.789C147.21 478.389 147.377 478.84 147.711 479.143C148.051 479.453 148.512 479.607 149.093 479.607ZM149.27 471.434C149.715 471.434 150.058 471.242 150.3 470.859C150.547 470.475 150.671 469.912 150.671 469.17C150.671 468.391 150.544 467.809 150.29 467.426C150.043 467.043 149.697 466.851 149.251 466.851C148.818 466.851 148.478 467.058 148.231 467.472C147.983 467.881 147.86 468.456 147.86 469.198C147.86 469.909 147.977 470.46 148.212 470.849C148.447 471.239 148.8 471.434 149.27 471.434ZM155.736 465.988V476.175H154.317V465.988H155.736ZM155.05 462.166C155.34 462.166 155.551 462.259 155.68 462.444C155.816 462.63 155.885 462.886 155.885 463.214C155.885 463.536 155.813 463.789 155.671 463.975C155.529 464.16 155.322 464.253 155.05 464.253C154.784 464.253 154.573 464.16 154.419 463.975C154.264 463.789 154.187 463.536 154.187 463.214C154.187 462.874 154.261 462.614 154.409 462.435C154.558 462.255 154.771 462.166 155.05 462.166ZM160.959 465.802C161.899 465.802 162.57 466.102 162.972 466.702C163.374 467.302 163.575 468.171 163.575 469.309V476.175H162.49L162.277 474.727H162.239C162.079 475.074 161.887 475.37 161.664 475.618C161.442 475.859 161.188 476.045 160.904 476.175C160.619 476.298 160.291 476.36 159.92 476.36C159.394 476.36 158.965 476.221 158.631 475.943C158.297 475.664 158.049 475.299 157.888 474.848C157.728 474.39 157.647 473.898 157.647 473.373C157.647 472.365 157.938 471.582 158.519 471.026C159.101 470.469 159.926 470.166 160.996 470.116L162.156 470.042V469.346C162.156 468.53 162.045 467.933 161.822 467.556C161.599 467.179 161.241 466.99 160.746 466.99C160.461 466.99 160.161 467.039 159.846 467.138C159.537 467.237 159.2 467.395 158.835 467.612L158.38 466.535C158.764 466.288 159.172 466.106 159.605 465.988C160.044 465.864 160.495 465.802 160.959 465.802ZM162.175 471.091L161.228 471.155C160.511 471.199 159.976 471.403 159.623 471.768C159.277 472.127 159.104 472.649 159.104 473.336C159.104 473.973 159.218 474.443 159.447 474.746C159.676 475.049 159.991 475.2 160.393 475.2C160.956 475.2 161.392 474.928 161.701 474.384C162.017 473.84 162.175 473.088 162.175 472.13V471.091ZM175.395 472.473C175.395 473.24 175.246 473.917 174.949 474.505C174.659 475.086 174.247 475.541 173.716 475.868C173.19 476.196 172.568 476.36 171.851 476.36C171.498 476.36 171.158 476.338 170.83 476.295C170.503 476.258 170.19 476.196 169.893 476.11C169.603 476.023 169.324 475.915 169.058 475.785V474.254C169.479 474.489 169.933 474.669 170.422 474.792C170.917 474.916 171.375 474.978 171.795 474.978C172.247 474.978 172.627 474.873 172.936 474.662C173.246 474.446 173.481 474.158 173.641 473.8C173.808 473.441 173.892 473.045 173.892 472.612C173.892 472.154 173.824 471.771 173.688 471.462C173.552 471.146 173.329 470.862 173.02 470.608C172.711 470.355 172.293 470.092 171.767 469.82C171.371 469.603 171.013 469.38 170.691 469.152C170.37 468.923 170.094 468.666 169.865 468.382C169.637 468.091 169.46 467.751 169.337 467.361C169.213 466.971 169.151 466.508 169.151 465.969C169.139 465.258 169.278 464.637 169.569 464.105C169.865 463.567 170.274 463.149 170.793 462.852C171.319 462.555 171.919 462.41 172.593 462.416C173.106 462.416 173.595 462.481 174.059 462.611C174.529 462.735 174.934 462.886 175.274 463.066L174.792 464.42C174.414 464.216 174.04 464.065 173.669 463.966C173.304 463.86 172.955 463.808 172.621 463.808C172.206 463.808 171.851 463.898 171.554 464.077C171.263 464.256 171.038 464.504 170.877 464.819C170.722 465.128 170.645 465.49 170.645 465.905C170.645 466.381 170.713 466.773 170.849 467.083C170.991 467.392 171.217 467.667 171.526 467.908C171.842 468.15 172.256 468.409 172.769 468.688C173.357 468.997 173.845 469.331 174.235 469.69C174.625 470.042 174.915 470.444 175.107 470.896C175.299 471.347 175.395 471.873 175.395 472.473ZM183.457 465.988V476.175H182.316L182.158 474.727H182.056C181.92 475.061 181.74 475.352 181.518 475.599C181.301 475.841 181.051 476.029 180.766 476.165C180.482 476.295 180.163 476.36 179.811 476.36C179.217 476.36 178.738 476.212 178.373 475.915C178.014 475.618 177.751 475.194 177.584 474.644C177.423 474.093 177.343 473.438 177.343 472.677V465.988H178.772V472.408C178.772 473.323 178.877 473.997 179.087 474.43C179.304 474.863 179.631 475.08 180.071 475.08C180.547 475.08 180.927 474.95 181.212 474.69C181.496 474.424 181.703 474.025 181.833 473.493C181.963 472.955 182.028 472.275 182.028 471.452V465.988H183.457ZM190.48 473.484C190.48 474.096 190.368 474.619 190.146 475.052C189.923 475.479 189.598 475.803 189.172 476.026C188.751 476.249 188.238 476.36 187.632 476.36C187.162 476.36 186.732 476.304 186.342 476.193C185.952 476.082 185.621 475.949 185.349 475.794V474.31C185.621 474.532 185.959 474.718 186.361 474.866C186.763 475.009 187.171 475.08 187.585 475.08C188.061 475.08 188.426 474.944 188.68 474.672C188.94 474.399 189.07 474.019 189.07 473.53C189.07 473.24 189.017 472.989 188.912 472.779C188.807 472.563 188.637 472.358 188.402 472.167C188.173 471.969 187.87 471.762 187.492 471.545C187.072 471.285 186.698 471.016 186.37 470.738C186.048 470.46 185.798 470.141 185.618 469.782C185.439 469.418 185.349 468.975 185.349 468.456C185.349 467.664 185.606 467.024 186.119 466.535C186.639 466.047 187.322 465.802 188.17 465.802C188.596 465.802 188.998 465.858 189.376 465.969C189.759 466.075 190.121 466.235 190.461 466.452L189.923 467.602C189.663 467.423 189.385 467.281 189.088 467.176C188.797 467.07 188.497 467.018 188.188 467.018C187.737 467.018 187.378 467.145 187.112 467.398C186.852 467.652 186.722 467.992 186.722 468.419C186.722 468.703 186.775 468.947 186.88 469.152C186.985 469.356 187.158 469.554 187.4 469.745C187.641 469.937 187.959 470.154 188.355 470.395C188.776 470.661 189.144 470.933 189.459 471.211C189.781 471.483 190.031 471.799 190.211 472.157C190.39 472.516 190.48 472.958 190.48 473.484ZM194.729 475.098C194.883 475.098 195.038 475.083 195.193 475.052C195.347 475.015 195.496 474.965 195.638 474.904V476.072C195.446 476.159 195.239 476.227 195.016 476.277C194.794 476.332 194.546 476.36 194.274 476.36C193.835 476.36 193.473 476.261 193.189 476.063C192.91 475.865 192.703 475.572 192.567 475.182C192.437 474.786 192.372 474.291 192.372 473.697V467.185H191.426V466.405L192.437 466.025L192.818 463.678H193.801V465.988H195.527V467.185H193.801V473.53C193.801 474.056 193.863 474.449 193.987 474.709C194.116 474.968 194.364 475.098 194.729 475.098ZM199.961 465.821C200.654 465.821 201.223 466.022 201.668 466.424C202.12 466.826 202.454 467.367 202.67 468.048C202.893 468.728 203.004 469.486 203.004 470.321V471.332H198.152C198.164 472.6 198.359 473.552 198.737 474.189C199.12 474.826 199.695 475.145 200.462 475.145C200.827 475.145 201.186 475.089 201.538 474.978C201.891 474.866 202.256 474.687 202.633 474.44V475.72C202.281 475.936 201.913 476.097 201.529 476.202C201.146 476.308 200.737 476.36 200.304 476.36C199.457 476.36 198.771 476.134 198.245 475.683C197.719 475.225 197.336 474.604 197.094 473.818C196.859 473.026 196.742 472.133 196.742 471.137C196.742 469.999 196.863 469.034 197.104 468.242C197.345 467.451 197.704 466.851 198.18 466.443C198.662 466.028 199.256 465.821 199.961 465.821ZM199.961 466.99C199.423 466.99 199.003 467.253 198.699 467.779C198.396 468.298 198.22 469.102 198.171 470.191H201.668C201.668 469.615 201.606 469.087 201.483 468.604C201.365 468.116 201.18 467.726 200.926 467.435C200.679 467.138 200.357 466.99 199.961 466.99ZM208.691 465.802C209.495 465.802 210.104 466.084 210.519 466.647C210.933 467.21 211.14 468.072 211.14 469.235V476.175H209.712V469.523C209.712 468.7 209.603 468.085 209.387 467.676C209.177 467.268 208.843 467.064 208.385 467.064C207.717 467.064 207.228 467.361 206.919 467.955C206.61 468.549 206.455 469.501 206.455 470.812V476.175H205.027V465.988H206.168L206.325 467.463H206.418C206.56 467.123 206.743 466.829 206.966 466.582C207.188 466.334 207.445 466.143 207.736 466.007C208.026 465.87 208.345 465.802 208.691 465.802ZM215.992 475.098C216.147 475.098 216.302 475.083 216.456 475.052C216.611 475.015 216.759 474.965 216.902 474.904V476.072C216.71 476.159 216.503 476.227 216.28 476.277C216.057 476.332 215.81 476.36 215.538 476.36C215.099 476.36 214.737 476.261 214.452 476.063C214.174 475.865 213.967 475.572 213.831 475.182C213.701 474.786 213.636 474.291 213.636 473.697V467.185H212.69V466.405L213.701 466.025L214.081 463.678H215.065V465.988H216.79V467.185H215.065V473.53C215.065 474.056 215.127 474.449 215.25 474.709C215.38 474.968 215.628 475.098 215.992 475.098ZM221.151 465.802C222.091 465.802 222.762 466.102 223.164 466.702C223.566 467.302 223.767 468.171 223.767 469.309V476.175H222.681L222.468 474.727H222.431C222.27 475.074 222.078 475.37 221.856 475.618C221.633 475.859 221.379 476.045 221.095 476.175C220.81 476.298 220.483 476.36 220.112 476.36C219.586 476.36 219.156 476.221 218.822 475.943C218.488 475.664 218.241 475.299 218.08 474.848C217.919 474.39 217.839 473.898 217.839 473.373C217.839 472.365 218.129 471.582 218.711 471.026C219.292 470.469 220.118 470.166 221.188 470.116L222.347 470.042V469.346C222.347 468.53 222.236 467.933 222.013 467.556C221.791 467.179 221.432 466.99 220.937 466.99C220.653 466.99 220.353 467.039 220.037 467.138C219.728 467.237 219.391 467.395 219.026 467.612L218.572 466.535C218.955 466.288 219.363 466.106 219.796 465.988C220.235 465.864 220.687 465.802 221.151 465.802ZM222.366 471.091L221.42 471.155C220.702 471.199 220.167 471.403 219.815 471.768C219.468 472.127 219.295 472.649 219.295 473.336C219.295 473.973 219.41 474.443 219.638 474.746C219.867 475.049 220.183 475.2 220.585 475.2C221.148 475.2 221.584 474.928 221.893 474.384C222.208 473.84 222.366 473.088 222.366 472.13V471.091ZM227.617 476.175L225.066 465.988H226.531L227.932 472.176C228.019 472.547 228.096 472.927 228.164 473.317C228.239 473.707 228.307 474.112 228.368 474.532H228.443C228.474 474.291 228.52 474.001 228.582 473.66C228.644 473.32 228.724 472.943 228.823 472.529L230.326 465.988H231.792L229.203 476.175H227.617ZM235.92 465.821C236.613 465.821 237.182 466.022 237.627 466.424C238.079 466.826 238.413 467.367 238.629 468.048C238.852 468.728 238.963 469.486 238.963 470.321V471.332H234.111C234.123 472.6 234.318 473.552 234.696 474.189C235.079 474.826 235.654 475.145 236.421 475.145C236.786 475.145 237.145 475.089 237.497 474.978C237.85 474.866 238.215 474.687 238.592 474.44V475.72C238.239 475.936 237.871 476.097 237.488 476.202C237.105 476.308 236.696 476.36 236.263 476.36C235.416 476.36 234.73 476.134 234.204 475.683C233.678 475.225 233.295 474.604 233.053 473.818C232.818 473.026 232.701 472.133 232.701 471.137C232.701 469.999 232.822 469.034 233.063 468.242C233.304 467.451 233.663 466.851 234.139 466.443C234.621 466.028 235.215 465.821 235.92 465.821ZM235.92 466.99C235.382 466.99 234.961 467.253 234.658 467.779C234.355 468.298 234.179 469.102 234.13 470.191H237.627C237.627 469.615 237.565 469.087 237.442 468.604C237.324 468.116 237.139 467.726 236.885 467.435C236.638 467.138 236.316 466.99 235.92 466.99ZM242.414 476.175H240.986V461.739H242.414V476.175ZM251.209 465.821C251.902 465.821 252.471 466.022 252.916 466.424C253.368 466.826 253.702 467.367 253.918 468.048C254.141 468.728 254.252 469.486 254.252 470.321V471.332H249.4C249.413 472.6 249.607 473.552 249.985 474.189C250.368 474.826 250.943 475.145 251.71 475.145C252.075 475.145 252.434 475.089 252.786 474.978C253.139 474.866 253.504 474.687 253.881 474.44V475.72C253.529 475.936 253.161 476.097 252.777 476.202C252.394 476.308 251.985 476.36 251.552 476.36C250.705 476.36 250.019 476.134 249.493 475.683C248.967 475.225 248.584 474.604 248.343 473.818C248.107 473.026 247.99 472.133 247.99 471.137C247.99 469.999 248.111 469.034 248.352 468.242C248.593 467.451 248.952 466.851 249.428 466.443C249.91 466.028 250.504 465.821 251.209 465.821ZM251.209 466.99C250.671 466.99 250.251 467.253 249.947 467.779C249.644 468.298 249.468 469.102 249.419 470.191H252.916C252.916 469.615 252.854 469.087 252.731 468.604C252.613 468.116 252.428 467.726 252.174 467.435C251.927 467.138 251.605 466.99 251.209 466.99ZM265.394 476.175L264.374 471.814H261.155L260.134 476.175H258.557L261.832 462.611H263.622L266.962 476.175H265.394ZM264.095 470.45L263.056 465.849C263.013 465.62 262.97 465.397 262.926 465.181C262.889 464.958 262.852 464.745 262.815 464.541C262.784 464.33 262.753 464.126 262.722 463.928C262.704 464.126 262.679 464.33 262.648 464.541C262.617 464.751 262.58 464.964 262.537 465.181C262.494 465.391 262.447 465.608 262.398 465.83L261.386 470.45H264.095ZM271.146 476.36C270.398 476.36 269.773 476.165 269.272 475.776C268.777 475.386 268.406 474.805 268.159 474.031C267.912 473.258 267.788 472.3 267.788 471.155C267.788 470.036 267.912 469.077 268.159 468.28C268.413 467.482 268.793 466.869 269.3 466.443C269.807 466.016 270.441 465.802 271.202 465.802C271.585 465.802 271.929 465.843 272.232 465.923C272.541 466.003 272.829 466.118 273.094 466.266L272.64 467.445C272.411 467.321 272.182 467.228 271.953 467.166C271.731 467.104 271.511 467.073 271.295 467.073C270.849 467.073 270.475 467.228 270.172 467.537C269.869 467.84 269.637 468.292 269.476 468.892C269.322 469.492 269.244 470.24 269.244 471.137C269.244 472.009 269.319 472.739 269.467 473.326C269.622 473.914 269.85 474.359 270.154 474.662C270.463 474.959 270.846 475.108 271.304 475.108C271.576 475.108 271.851 475.071 272.13 474.996C272.414 474.916 272.699 474.801 272.983 474.653V475.859C272.723 476.02 272.42 476.144 272.074 476.23C271.734 476.317 271.425 476.36 271.146 476.36ZM277.538 465.821C278.231 465.821 278.8 466.022 279.245 466.424C279.697 466.826 280.031 467.367 280.247 468.048C280.47 468.728 280.581 469.486 280.581 470.321V471.332H275.729C275.742 472.6 275.936 473.552 276.314 474.189C276.697 474.826 277.272 475.145 278.039 475.145C278.404 475.145 278.763 475.089 279.115 474.978C279.468 474.866 279.833 474.687 280.21 474.44V475.72C279.858 475.936 279.49 476.097 279.106 476.202C278.723 476.308 278.315 476.36 277.882 476.36C277.034 476.36 276.348 476.134 275.822 475.683C275.296 475.225 274.913 474.604 274.672 473.818C274.437 473.026 274.319 472.133 274.319 471.137C274.319 469.999 274.44 469.034 274.681 468.242C274.922 467.451 275.281 466.851 275.757 466.443C276.239 466.028 276.833 465.821 277.538 465.821ZM277.538 466.99C277 466.99 276.58 467.253 276.277 467.779C275.974 468.298 275.797 469.102 275.748 470.191H279.245C279.245 469.615 279.183 469.087 279.06 468.604C278.942 468.116 278.757 467.726 278.503 467.435C278.256 467.138 277.934 466.99 277.538 466.99ZM287.131 473.484C287.131 474.096 287.02 474.619 286.797 475.052C286.574 475.479 286.25 475.803 285.823 476.026C285.402 476.249 284.889 476.36 284.283 476.36C283.813 476.36 283.383 476.304 282.993 476.193C282.604 476.082 282.273 475.949 282.001 475.794V474.31C282.273 474.532 282.61 474.718 283.012 474.866C283.414 475.009 283.822 475.08 284.237 475.08C284.713 475.08 285.078 474.944 285.331 474.672C285.591 474.399 285.721 474.019 285.721 473.53C285.721 473.24 285.668 472.989 285.563 472.779C285.458 472.563 285.288 472.358 285.053 472.167C284.824 471.969 284.521 471.762 284.144 471.545C283.723 471.285 283.349 471.016 283.021 470.738C282.7 470.46 282.449 470.141 282.27 469.782C282.09 469.418 282.001 468.975 282.001 468.456C282.001 467.664 282.257 467.024 282.771 466.535C283.29 466.047 283.974 465.802 284.821 465.802C285.248 465.802 285.65 465.858 286.027 465.969C286.411 466.075 286.772 466.235 287.113 466.452L286.574 467.602C286.315 467.423 286.036 467.281 285.739 467.176C285.449 467.07 285.149 467.018 284.84 467.018C284.388 467.018 284.029 467.145 283.763 467.398C283.504 467.652 283.374 467.992 283.374 468.419C283.374 468.703 283.426 468.947 283.531 469.152C283.637 469.356 283.81 469.554 284.051 469.745C284.292 469.937 284.611 470.154 285.007 470.395C285.427 470.661 285.795 470.933 286.111 471.211C286.432 471.483 286.683 471.799 286.862 472.157C287.041 472.516 287.131 472.958 287.131 473.484ZM293.514 473.484C293.514 474.096 293.403 474.619 293.18 475.052C292.957 475.479 292.633 475.803 292.206 476.026C291.785 476.249 291.272 476.36 290.666 476.36C290.196 476.36 289.766 476.304 289.376 476.193C288.987 476.082 288.656 475.949 288.384 475.794V474.31C288.656 474.532 288.993 474.718 289.395 474.866C289.797 475.009 290.205 475.08 290.619 475.08C291.096 475.08 291.461 474.944 291.714 474.672C291.974 474.399 292.104 474.019 292.104 473.53C292.104 473.24 292.051 472.989 291.946 472.779C291.841 472.563 291.671 472.358 291.436 472.167C291.207 471.969 290.904 471.762 290.527 471.545C290.106 471.285 289.732 471.016 289.404 470.738C289.082 470.46 288.832 470.141 288.653 469.782C288.473 469.418 288.384 468.975 288.384 468.456C288.384 467.664 288.64 467.024 289.154 466.535C289.673 466.047 290.357 465.802 291.204 465.802C291.631 465.802 292.033 465.858 292.41 465.969C292.793 466.075 293.155 466.235 293.495 466.452L292.957 467.602C292.697 467.423 292.419 467.281 292.122 467.176C291.832 467.07 291.532 467.018 291.222 467.018C290.771 467.018 290.412 467.145 290.146 467.398C289.886 467.652 289.757 467.992 289.757 468.419C289.757 468.703 289.809 468.947 289.914 469.152C290.019 469.356 290.193 469.554 290.434 469.745C290.675 469.937 290.994 470.154 291.389 470.395C291.81 470.661 292.178 470.933 292.493 471.211C292.815 471.483 293.065 471.799 293.245 472.157C293.424 472.516 293.514 472.958 293.514 473.484ZM296.807 465.988V476.175H295.388V465.988H296.807ZM296.121 462.166C296.412 462.166 296.622 462.259 296.752 462.444C296.888 462.63 296.956 462.886 296.956 463.214C296.956 463.536 296.885 463.789 296.742 463.975C296.6 464.16 296.393 464.253 296.121 464.253C295.855 464.253 295.645 464.16 295.49 463.975C295.335 463.789 295.258 463.536 295.258 463.214C295.258 462.874 295.332 462.614 295.481 462.435C295.629 462.255 295.843 462.166 296.121 462.166ZM300.685 476.175L298.134 465.988H299.6L301.001 472.176C301.087 472.547 301.165 472.927 301.233 473.317C301.307 473.707 301.375 474.112 301.437 474.532H301.511C301.542 474.291 301.588 474.001 301.65 473.66C301.712 473.32 301.792 472.943 301.891 472.529L303.394 465.988H304.86L302.272 476.175H300.685ZM308.989 465.821C309.681 465.821 310.25 466.022 310.696 466.424C311.147 466.826 311.481 467.367 311.697 468.048C311.92 468.728 312.031 469.486 312.031 470.321V471.332H307.179C307.192 472.6 307.387 473.552 307.764 474.189C308.147 474.826 308.723 475.145 309.489 475.145C309.854 475.145 310.213 475.089 310.566 474.978C310.918 474.866 311.283 474.687 311.66 474.44V475.72C311.308 475.936 310.94 476.097 310.556 476.202C310.173 476.308 309.765 476.36 309.332 476.36C308.484 476.36 307.798 476.134 307.272 475.683C306.746 475.225 306.363 474.604 306.122 473.818C305.887 473.026 305.769 472.133 305.769 471.137C305.769 469.999 305.89 469.034 306.131 468.242C306.372 467.451 306.731 466.851 307.207 466.443C307.69 466.028 308.283 465.821 308.989 465.821ZM308.989 466.99C308.45 466.99 308.03 467.253 307.727 467.779C307.424 468.298 307.247 469.102 307.198 470.191H310.696C310.696 469.615 310.634 469.087 310.51 468.604C310.392 468.116 310.207 467.726 309.953 467.435C309.706 467.138 309.384 466.99 308.989 466.99ZM315.483 476.175H314.054V461.739H315.483V476.175ZM325.159 465.802C326.136 465.802 326.875 466.242 327.376 467.12C327.883 467.992 328.137 469.306 328.137 471.063C328.137 472.195 328.023 473.156 327.794 473.948C327.571 474.733 327.243 475.333 326.81 475.748C326.377 476.156 325.852 476.36 325.233 476.36C324.887 476.36 324.565 476.295 324.268 476.165C323.971 476.029 323.709 475.841 323.48 475.599C323.251 475.352 323.059 475.064 322.905 474.737H322.84C322.852 474.984 322.864 475.222 322.877 475.451C322.895 475.68 322.905 475.896 322.905 476.1V480.72H321.476V465.988H322.635L322.812 467.482H322.895C323.068 467.104 323.266 466.792 323.489 466.545C323.718 466.297 323.971 466.112 324.25 465.988C324.528 465.864 324.831 465.802 325.159 465.802ZM324.853 467.036C324.42 467.036 324.058 467.172 323.767 467.445C323.483 467.717 323.266 468.128 323.118 468.678C322.976 469.223 322.905 469.909 322.905 470.738V471.23C322.905 472.108 322.976 472.835 323.118 473.41C323.266 473.985 323.486 474.412 323.777 474.69C324.073 474.968 324.438 475.108 324.871 475.108C325.267 475.108 325.598 474.965 325.864 474.681C326.136 474.396 326.34 473.957 326.476 473.363C326.612 472.77 326.68 472.009 326.68 471.081C326.68 469.739 326.538 468.731 326.254 468.057C325.975 467.377 325.508 467.036 324.853 467.036ZM332.906 465.802C333.846 465.802 334.517 466.102 334.919 466.702C335.321 467.302 335.522 468.171 335.522 469.309V476.175H334.436L334.223 474.727H334.186C334.025 475.074 333.833 475.37 333.611 475.618C333.388 475.859 333.134 476.045 332.85 476.175C332.565 476.298 332.238 476.36 331.866 476.36C331.341 476.36 330.911 476.221 330.577 475.943C330.243 475.664 329.996 475.299 329.835 474.848C329.674 474.39 329.593 473.898 329.593 473.373C329.593 472.365 329.884 471.582 330.466 471.026C331.047 470.469 331.873 470.166 332.943 470.116L334.102 470.042V469.346C334.102 468.53 333.991 467.933 333.768 467.556C333.546 467.179 333.187 466.99 332.692 466.99C332.408 466.99 332.108 467.039 331.792 467.138C331.483 467.237 331.146 467.395 330.781 467.612L330.326 466.535C330.71 466.288 331.118 466.106 331.551 465.988C331.99 465.864 332.442 465.802 332.906 465.802ZM334.121 471.091L333.175 471.155C332.457 471.199 331.922 471.403 331.57 471.768C331.223 472.127 331.05 472.649 331.05 473.336C331.05 473.973 331.164 474.443 331.393 474.746C331.622 475.049 331.938 475.2 332.34 475.2C332.902 475.2 333.338 474.928 333.648 474.384C333.963 473.84 334.121 473.088 334.121 472.13V471.091ZM341.394 465.812C341.537 465.812 341.679 465.824 341.821 465.849C341.963 465.867 342.112 465.901 342.266 465.951L342.044 467.417C341.932 467.367 341.815 467.333 341.691 467.315C341.567 467.296 341.434 467.287 341.292 467.287C341.014 467.287 340.757 467.38 340.522 467.565C340.293 467.745 340.095 467.998 339.928 468.326C339.761 468.654 339.632 469.034 339.539 469.467C339.452 469.9 339.412 470.367 339.418 470.868V476.175H337.989V465.988H339.103L339.298 467.797H339.39C339.533 467.407 339.7 467.064 339.891 466.767C340.083 466.47 340.303 466.238 340.55 466.072C340.804 465.898 341.085 465.812 341.394 465.812ZM346.413 465.802C347.353 465.802 348.024 466.102 348.426 466.702C348.829 467.302 349.03 468.171 349.03 469.309V476.175H347.944L347.731 474.727H347.694C347.533 475.074 347.341 475.37 347.118 475.618C346.896 475.859 346.642 476.045 346.358 476.175C346.073 476.298 345.745 476.36 345.374 476.36C344.849 476.36 344.419 476.221 344.085 475.943C343.751 475.664 343.503 475.299 343.343 474.848C343.182 474.39 343.101 473.898 343.101 473.373C343.101 472.365 343.392 471.582 343.973 471.026C344.555 470.469 345.38 470.166 346.45 470.116L347.61 470.042V469.346C347.61 468.53 347.499 467.933 347.276 467.556C347.053 467.179 346.695 466.99 346.2 466.99C345.915 466.99 345.615 467.039 345.3 467.138C344.991 467.237 344.654 467.395 344.289 467.612L343.834 466.535C344.218 466.288 344.626 466.106 345.059 465.988C345.498 465.864 345.949 465.802 346.413 465.802ZM347.629 471.091L346.682 471.155C345.965 471.199 345.43 471.403 345.077 471.768C344.731 472.127 344.558 472.649 344.558 473.336C344.558 473.973 344.672 474.443 344.901 474.746C345.13 475.049 345.445 475.2 345.847 475.2C346.41 475.2 346.846 474.928 347.156 474.384C347.471 473.84 347.629 473.088 347.629 472.13V471.091ZM357.416 475.098C357.571 475.098 357.725 475.083 357.88 475.052C358.035 475.015 358.183 474.965 358.325 474.904V476.072C358.134 476.159 357.926 476.227 357.704 476.277C357.481 476.332 357.234 476.36 356.962 476.36C356.523 476.36 356.161 476.261 355.876 476.063C355.598 475.865 355.391 475.572 355.255 475.182C355.125 474.786 355.06 474.291 355.06 473.697V467.185H354.114V466.405L355.125 466.025L355.505 463.678H356.489V465.988H358.214V467.185H356.489V473.53C356.489 474.056 356.55 474.449 356.674 474.709C356.804 474.968 357.051 475.098 357.416 475.098ZM366.165 471.072C366.165 471.876 366.097 472.603 365.961 473.252C365.825 473.902 365.617 474.458 365.339 474.922C365.061 475.386 364.708 475.742 364.281 475.989C363.855 476.236 363.351 476.36 362.769 476.36C362.213 476.36 361.724 476.236 361.303 475.989C360.883 475.742 360.533 475.389 360.255 474.931C359.977 474.467 359.767 473.911 359.624 473.261C359.482 472.606 359.411 471.876 359.411 471.072C359.411 469.946 359.531 468.994 359.773 468.215C360.014 467.429 360.385 466.832 360.886 466.424C361.387 466.01 362.024 465.802 362.797 465.802C363.521 465.802 364.133 466.003 364.634 466.405C365.135 466.801 365.515 467.392 365.775 468.177C366.035 468.957 366.165 469.922 366.165 471.072ZM360.867 471.072C360.867 471.956 360.935 472.699 361.072 473.299C361.208 473.898 361.418 474.35 361.702 474.653C361.993 474.956 362.361 475.108 362.806 475.108C363.246 475.108 363.604 474.959 363.883 474.662C364.167 474.365 364.377 473.92 364.513 473.326C364.649 472.726 364.718 471.975 364.718 471.072C364.718 470.188 364.649 469.448 364.513 468.855C364.377 468.255 364.167 467.806 363.883 467.509C363.604 467.206 363.242 467.055 362.797 467.055C362.117 467.055 361.625 467.392 361.322 468.066C361.019 468.734 360.867 469.736 360.867 471.072ZM370.748 476.36C369.777 476.36 369.038 475.915 368.531 475.024C368.03 474.127 367.779 472.822 367.779 471.109C367.779 469.408 368.033 468.1 368.54 467.185C369.047 466.263 369.767 465.802 370.701 465.802C371.029 465.802 371.338 465.867 371.629 465.997C371.92 466.121 372.18 466.3 372.408 466.535C372.643 466.764 372.841 467.043 373.002 467.37H373.067C373.055 467.086 373.042 466.832 373.03 466.61C373.024 466.381 373.021 466.167 373.021 465.969V461.739H374.44V476.175H373.299L373.104 474.801H373.021C372.848 475.123 372.65 475.401 372.427 475.636C372.211 475.871 371.963 476.051 371.685 476.175C371.413 476.298 371.1 476.36 370.748 476.36ZM371.063 475.145C371.706 475.145 372.192 474.845 372.52 474.245C372.854 473.645 373.021 472.757 373.021 471.582V470.886C373.021 469.594 372.86 468.635 372.538 468.01C372.223 467.386 371.725 467.073 371.045 467.073C370.426 467.073 369.968 467.42 369.672 468.113C369.381 468.799 369.236 469.798 369.236 471.109C369.236 472.433 369.381 473.438 369.672 474.124C369.968 474.805 370.432 475.145 371.063 475.145ZM383.235 471.072C383.235 471.876 383.167 472.603 383.031 473.252C382.895 473.902 382.688 474.458 382.409 474.922C382.131 475.386 381.779 475.742 381.352 475.989C380.925 476.236 380.421 476.36 379.84 476.36C379.283 476.36 378.794 476.236 378.374 475.989C377.953 475.742 377.604 475.389 377.325 474.931C377.047 474.467 376.837 473.911 376.695 473.261C376.552 472.606 376.481 471.876 376.481 471.072C376.481 469.946 376.602 468.994 376.843 468.215C377.084 467.429 377.455 466.832 377.956 466.424C378.457 466.01 379.094 465.802 379.867 465.802C380.591 465.802 381.203 466.003 381.704 466.405C382.205 466.801 382.586 467.392 382.845 468.177C383.105 468.957 383.235 469.922 383.235 471.072ZM377.938 471.072C377.938 471.956 378.006 472.699 378.142 473.299C378.278 473.898 378.488 474.35 378.773 474.653C379.063 474.956 379.431 475.108 379.877 475.108C380.316 475.108 380.675 474.959 380.953 474.662C381.237 474.365 381.448 473.92 381.584 473.326C381.72 472.726 381.788 471.975 381.788 471.072C381.788 470.188 381.72 469.448 381.584 468.855C381.448 468.255 381.237 467.806 380.953 467.509C380.675 467.206 380.313 467.055 379.867 467.055C379.187 467.055 378.695 467.392 378.392 468.066C378.089 468.734 377.938 469.736 377.938 471.072ZM389.813 473.484C389.813 474.096 389.701 474.619 389.479 475.052C389.256 475.479 388.931 475.803 388.505 476.026C388.084 476.249 387.571 476.36 386.965 476.36C386.495 476.36 386.065 476.304 385.675 476.193C385.285 476.082 384.954 475.949 384.682 475.794V474.31C384.954 474.532 385.292 474.718 385.694 474.866C386.096 475.009 386.504 475.08 386.918 475.08C387.394 475.08 387.759 474.944 388.013 474.672C388.273 474.399 388.403 474.019 388.403 473.53C388.403 473.24 388.35 472.989 388.245 472.779C388.14 472.563 387.97 472.358 387.735 472.167C387.506 471.969 387.203 471.762 386.825 471.545C386.405 471.285 386.031 471.016 385.703 470.738C385.381 470.46 385.131 470.141 384.951 469.782C384.772 469.418 384.682 468.975 384.682 468.456C384.682 467.664 384.939 467.024 385.452 466.535C385.972 466.047 386.655 465.802 387.503 465.802C387.929 465.802 388.331 465.858 388.709 465.969C389.092 466.075 389.454 466.235 389.794 466.452L389.256 467.602C388.996 467.423 388.718 467.281 388.421 467.176C388.13 467.07 387.83 467.018 387.521 467.018C387.07 467.018 386.711 467.145 386.445 467.398C386.185 467.652 386.055 467.992 386.055 468.419C386.055 468.703 386.108 468.947 386.213 469.152C386.318 469.356 386.491 469.554 386.733 469.745C386.974 469.937 387.292 470.154 387.688 470.395C388.109 470.661 388.477 470.933 388.792 471.211C389.114 471.483 389.364 471.799 389.544 472.157C389.723 472.516 389.813 472.958 389.813 473.484ZM391.557 475.182C391.557 474.805 391.637 474.517 391.798 474.319C391.965 474.121 392.206 474.022 392.522 474.022C392.825 474.022 393.063 474.115 393.236 474.301C393.409 474.48 393.496 474.774 393.496 475.182C393.496 475.578 393.406 475.868 393.227 476.054C393.047 476.239 392.812 476.332 392.522 476.332C392.219 476.332 391.981 476.236 391.807 476.045C391.64 475.847 391.557 475.559 391.557 475.182Z" fill="#484848"/>
</svg>
