<svg width="166" height="25" viewBox="0 0 166 25" fill="none" xmlns="http://www.w3.org/2000/svg">
<g clip-path="url(#clip0_72_10)">
<path d="M19.2176 22.8625H2.07846V1.24567H19.2176V5.56905H7.63709V9.73802H16.7471V14.0614H7.63709V18.5392H19.2176V22.8625ZM35.8862 22.5537C32.0363 22.9655 28.6394 23.1714 25.6954 23.1714C24.2954 23.1714 23.1734 22.7493 22.3293 21.9052C21.4852 21.0611 21.0632 19.9391 21.0632 18.5392V11.4365C21.0632 9.89242 21.4955 8.68805 22.3602 7.82338C23.2455 6.93812 24.4601 6.49549 26.0042 6.49549H35.8862V10.6645H27.7027C26.8792 10.6645 26.4674 11.0762 26.4674 11.8997V17.9215C26.4674 18.2304 26.5703 18.4877 26.7762 18.6936C26.9821 18.8995 27.2394 19.0024 27.5483 19.0024C29.4011 19.0024 32.1804 18.848 35.8862 18.5392V22.5537ZM55.0265 18.2304C55.0265 19.7744 54.5839 20.9891 53.6986 21.8743C52.834 22.739 51.6296 23.1714 50.0855 23.1714H42.9828C41.4388 23.1714 40.2241 22.739 39.3389 21.8743C38.4742 20.9891 38.0418 19.7744 38.0418 18.2304V11.1277C38.0418 9.58361 38.4742 8.37924 39.3389 7.51457C40.2241 6.6293 41.4388 6.18667 42.9828 6.18667H50.0855C51.6296 6.18667 52.834 6.6293 53.6986 7.51457C54.5839 8.37924 55.0265 9.58361 55.0265 11.1277V18.2304ZM49.6223 11.5909C49.6223 10.7674 49.2106 10.3556 48.3871 10.3556H44.6813C43.8578 10.3556 43.4461 10.7674 43.4461 11.5909V17.7671C43.4461 18.5906 43.8578 19.0024 44.6813 19.0024H48.3871C49.2106 19.0024 49.6223 18.5906 49.6223 17.7671V11.5909ZM57.4625 18.3848C63.1035 18.6936 66.9225 18.848 68.9195 18.848C69.393 18.848 69.7636 18.7142 70.0312 18.4465C70.3194 18.1583 70.4635 17.7774 70.4635 17.3039V14.5246H63.3609C61.1992 14.5246 59.6242 14.0408 58.636 13.0732C57.6684 12.085 57.1846 10.51 57.1846 8.34836V7.42192C57.1846 5.26024 57.6684 3.69559 58.636 2.72797C59.6242 1.73977 61.1992 1.24567 63.3609 1.24567H74.2002V5.56905H64.5961C63.3609 5.56905 62.7432 6.18667 62.7432 7.42192V8.03955C62.7432 9.2748 63.3609 9.89242 64.5961 9.89242H70.1547C72.1723 9.89242 73.6546 10.3659 74.6016 11.313C75.5487 12.26 76.0222 13.7423 76.0222 15.7599V17.3039C76.0222 19.3215 75.5487 20.8038 74.6016 21.7508C73.6546 22.6978 72.1723 23.1714 70.1547 23.1714C69.1048 23.1714 67.993 23.1508 66.8196 23.1096L63.9785 22.9861C61.8786 22.8831 59.7066 22.739 57.4625 22.5537V18.3848ZM95.1661 18.2304C95.1661 19.7744 94.7235 20.9891 93.8382 21.8743C92.9736 22.739 91.7692 23.1714 90.2251 23.1714H83.1224C81.5784 23.1714 80.3637 22.739 79.4785 21.8743C78.6138 20.9891 78.1814 19.7744 78.1814 18.2304V11.1277C78.1814 9.58361 78.6138 8.37924 79.4785 7.51457C80.3637 6.6293 81.5784 6.18667 83.1224 6.18667H90.2251C91.7692 6.18667 92.9736 6.6293 93.8382 7.51457C94.7235 8.37924 95.1661 9.58361 95.1661 11.1277V18.2304ZM89.7619 11.5909C89.7619 10.7674 89.3502 10.3556 88.5267 10.3556H84.8209C83.9974 10.3556 83.5857 10.7674 83.5857 11.5909V17.7671C83.5857 18.5906 83.9974 19.0024 84.8209 19.0024H88.5267C89.3502 19.0024 89.7619 18.5906 89.7619 17.7671V11.5909ZM106.28 22.8625C104.9 23.0684 103.583 23.1714 102.327 23.1714C101.092 23.1714 100.052 22.7493 99.208 21.9052C98.3639 21.0611 97.9418 19.9391 97.9418 18.5392V1.24567H103.346V17.7671C103.346 18.076 103.449 18.3333 103.655 18.5392C103.861 18.745 104.118 18.848 104.427 18.848H106.28V22.8625ZM114.922 18.848C116.013 18.848 117.248 18.6421 118.627 18.2304V16.3775H114.15C113.841 16.3775 113.584 16.4804 113.378 16.6863C113.172 16.8922 113.069 17.1495 113.069 17.4583V17.7671C113.069 18.076 113.172 18.3333 113.378 18.5392C113.584 18.745 113.841 18.848 114.15 18.848H114.922ZM109.209 6.8043C112.976 6.39255 116.373 6.18667 119.399 6.18667C120.799 6.18667 121.921 6.60872 122.766 7.4528C123.61 8.29689 124.032 9.41891 124.032 10.8189V22.8625H119.245L118.936 21.3185C117.969 21.9567 116.97 22.4302 115.941 22.739C114.932 23.0272 114.078 23.1714 113.378 23.1714H112.297C110.897 23.1714 109.775 22.7493 108.931 21.9052C108.087 21.0611 107.665 19.9391 107.665 18.5392V17.1495C107.665 15.7496 108.087 14.6275 108.931 13.7835C109.775 12.9394 110.897 12.5173 112.297 12.5173H118.627V11.2821C118.627 10.9733 118.525 10.7159 118.319 10.51C118.113 10.3042 117.855 10.2012 117.547 10.2012C116.208 10.2012 114.726 10.263 113.1 10.3865C111.494 10.51 110.197 10.6027 109.209 10.6645V6.8043ZM136.221 10.9733C134.924 10.9733 133.586 11.2821 132.207 11.8997V22.8625H126.803V6.49549H131.589L131.898 8.50277C133.668 6.9587 135.521 6.18667 137.457 6.18667H138.846V10.9733H136.221ZM147.801 7.11311V22.8625H142.396V11.2821H140.08V7.11311H147.801ZM142.396 0.93686H147.801V5.26023H142.396V0.93686ZM165.258 10.6645L156.766 18.6936H165.258V22.8625H149.972V18.6936L158.464 10.6645H149.972V6.49549H165.258V10.6645Z" fill="white"/>
</g>
<defs>
<clipPath id="clip0_72_10">
<rect width="166" height="25" fill="white"/>
</clipPath>
</defs>
</svg>
