<svg width="166" height="54" viewBox="0 0 166 54" fill="none" xmlns="http://www.w3.org/2000/svg">
<g clip-path="url(#clip0_71_3)">
<path d="M19.2176 27.7605H2.07846V6.14362H19.2176V10.467H7.63709V14.636H16.7471V18.9593H7.63709V23.4371H19.2176V27.7605ZM35.8862 27.4517C32.0363 27.8634 28.6394 28.0693 25.6954 28.0693C24.2954 28.0693 23.1734 27.6473 22.3293 26.8032C21.4852 25.9591 21.0632 24.8371 21.0632 23.4371V16.3344C21.0632 14.7904 21.4955 13.586 22.3602 12.7213C23.2455 11.8361 24.4601 11.3934 26.0042 11.3934H35.8862V15.5624H27.7027C26.8792 15.5624 26.4674 15.9742 26.4674 16.7977V22.8195C26.4674 23.1283 26.5703 23.3857 26.7762 23.5915C26.9821 23.7974 27.2394 23.9003 27.5483 23.9003C29.4011 23.9003 32.1804 23.7459 35.8862 23.4371V27.4517ZM55.0265 23.1283C55.0265 24.6724 54.5839 25.887 53.6986 26.7723C52.834 27.637 51.6296 28.0693 50.0855 28.0693H42.9828C41.4388 28.0693 40.2241 27.637 39.3389 26.7723C38.4742 25.887 38.0418 24.6724 38.0418 23.1283V16.0256C38.0418 14.4816 38.4742 13.2772 39.3389 12.4125C40.2241 11.5273 41.4388 11.0846 42.9828 11.0846H50.0855C51.6296 11.0846 52.834 11.5273 53.6986 12.4125C54.5839 13.2772 55.0265 14.4816 55.0265 16.0256V23.1283ZM49.6223 16.4888C49.6223 15.6653 49.2106 15.2536 48.3871 15.2536H44.6813C43.8578 15.2536 43.4461 15.6653 43.4461 16.4888V22.6651C43.4461 23.4886 43.8578 23.9003 44.6813 23.9003H48.3871C49.2106 23.9003 49.6223 23.4886 49.6223 22.6651V16.4888ZM57.4625 23.2827C63.1035 23.5915 66.9225 23.7459 68.9195 23.7459C69.393 23.7459 69.7636 23.6121 70.0312 23.3445C70.3194 23.0563 70.4635 22.6754 70.4635 22.2019V19.4226H63.3609C61.1992 19.4226 59.6242 18.9388 58.636 17.9711C57.6684 16.9829 57.1846 15.408 57.1846 13.2463V12.3199C57.1846 10.1582 57.6684 8.59353 58.636 7.62592C59.6242 6.63772 61.1992 6.14362 63.3609 6.14362H74.2002V10.467H64.5961C63.3609 10.467 62.7432 11.0846 62.7432 12.3199V12.9375C62.7432 14.1727 63.3609 14.7904 64.5961 14.7904H70.1547C72.1723 14.7904 73.6546 15.2639 74.6016 16.2109C75.5487 17.1579 76.0222 18.6402 76.0222 20.6578V22.2019C76.0222 24.2194 75.5487 25.7017 74.6016 26.6488C73.6546 27.5958 72.1723 28.0693 70.1547 28.0693C69.1048 28.0693 67.993 28.0487 66.8196 28.0075L63.9785 27.884C61.8786 27.7811 59.7066 27.637 57.4625 27.4517V23.2827ZM95.1661 23.1283C95.1661 24.6724 94.7235 25.887 93.8382 26.7723C92.9736 27.637 91.7692 28.0693 90.2251 28.0693H83.1224C81.5784 28.0693 80.3637 27.637 79.4785 26.7723C78.6138 25.887 78.1814 24.6724 78.1814 23.1283V16.0256C78.1814 14.4816 78.6138 13.2772 79.4785 12.4125C80.3637 11.5273 81.5784 11.0846 83.1224 11.0846H90.2251C91.7692 11.0846 92.9736 11.5273 93.8382 12.4125C94.7235 13.2772 95.1661 14.4816 95.1661 16.0256V23.1283ZM89.7619 16.4888C89.7619 15.6653 89.3502 15.2536 88.5267 15.2536H84.8209C83.9974 15.2536 83.5857 15.6653 83.5857 16.4888V22.6651C83.5857 23.4886 83.9974 23.9003 84.8209 23.9003H88.5267C89.3502 23.9003 89.7619 23.4886 89.7619 22.6651V16.4888ZM106.28 27.7605C104.9 27.9664 103.583 28.0693 102.327 28.0693C101.092 28.0693 100.052 27.6473 99.208 26.8032C98.3639 25.9591 97.9418 24.8371 97.9418 23.4371V6.14362H103.346V22.6651C103.346 22.9739 103.449 23.2312 103.655 23.4371C103.861 23.643 104.118 23.7459 104.427 23.7459H106.28V27.7605ZM114.922 23.7459C116.013 23.7459 117.248 23.5401 118.627 23.1283V21.2754H114.15C113.841 21.2754 113.584 21.3784 113.378 21.5842C113.172 21.7901 113.069 22.0475 113.069 22.3563V22.6651C113.069 22.9739 113.172 23.2312 113.378 23.4371C113.584 23.643 113.841 23.7459 114.15 23.7459H114.922ZM109.209 11.7022C112.976 11.2905 116.373 11.0846 119.399 11.0846C120.799 11.0846 121.921 11.5067 122.766 12.3508C123.61 13.1948 124.032 14.3169 124.032 15.7168V27.7605H119.245L118.936 26.2164C117.969 26.8546 116.97 27.3282 115.941 27.637C114.932 27.9252 114.078 28.0693 113.378 28.0693H112.297C110.897 28.0693 109.775 27.6473 108.931 26.8032C108.087 25.9591 107.665 24.8371 107.665 23.4371V22.0475C107.665 20.6475 108.087 19.5255 108.931 18.6814C109.775 17.8373 110.897 17.4153 112.297 17.4153H118.627V16.18C118.627 15.8712 118.525 15.6139 118.319 15.408C118.113 15.2021 117.855 15.0992 117.547 15.0992C116.208 15.0992 114.726 15.1609 113.1 15.2845C111.494 15.408 110.197 15.5006 109.209 15.5624V11.7022ZM136.221 15.8712C134.924 15.8712 133.586 16.18 132.207 16.7977V27.7605H126.803V11.3934H131.589L131.898 13.4007C133.668 11.8567 135.521 11.0846 137.457 11.0846H138.846V15.8712H136.221ZM147.801 12.0111V27.7605H142.396V16.18H140.08V12.0111H147.801ZM142.396 5.83481H147.801V10.1582H142.396V5.83481ZM165.258 15.5624L156.766 23.5915H165.258V27.7605H149.972V23.5915L158.464 15.5624H149.972V11.3934H165.258V15.5624Z" fill="white"/>
<path d="M2.79344 46.9165H0.759671V41.7454H2.79344V42.2477H1.32205V43.9631H2.70501V44.4689H1.32205V46.4036H2.79344V46.9165ZM4.98991 42.9622C5.29645 42.9622 5.52871 43.0694 5.68669 43.284C5.84468 43.4986 5.92367 43.8275 5.92367 44.2708V46.9165H5.37898V44.3805C5.37898 44.0669 5.33771 43.8323 5.25518 43.6766C5.17501 43.521 5.04768 43.4432 4.87319 43.4432C4.61852 43.4432 4.43224 43.5564 4.31434 43.7827C4.19644 44.0091 4.13749 44.3722 4.13749 44.8721V46.9165H3.5928V43.0329H4.02785L4.08798 43.5953H4.12335C4.17758 43.4656 4.24714 43.3536 4.33203 43.2593C4.41692 43.1649 4.51477 43.0918 4.6256 43.04C4.73642 42.9881 4.85786 42.9622 4.98991 42.9622ZM7.92914 42.9692C8.19324 42.9692 8.41017 43.0459 8.57995 43.1991C8.75208 43.3524 8.87942 43.5587 8.96194 43.8181C9.04683 44.0775 9.08928 44.3663 9.08928 44.6847V45.0702H7.23943C7.24415 45.5536 7.31842 45.9167 7.46226 46.1596C7.60846 46.4025 7.82775 46.5239 8.12014 46.5239C8.25926 46.5239 8.39603 46.5027 8.53043 46.4602C8.66484 46.4178 8.80396 46.3494 8.9478 46.2551V46.7432C8.81339 46.8257 8.67309 46.887 8.5269 46.9271C8.3807 46.9672 8.22507 46.9872 8.06001 46.9872C7.73697 46.9872 7.47523 46.9012 7.2748 46.729C7.07437 46.5546 6.92818 46.3176 6.83622 46.0181C6.74661 45.7163 6.70181 45.3756 6.70181 44.9959C6.70181 44.562 6.74779 44.1942 6.83975 43.8924C6.93171 43.5906 7.06848 43.3618 7.25004 43.2062C7.43397 43.0482 7.66033 42.9692 7.92914 42.9692ZM7.92914 43.4149C7.724 43.4149 7.56366 43.5151 7.44811 43.7155C7.33257 43.9136 7.26537 44.2201 7.24651 44.6351H8.57995C8.57995 44.4159 8.55637 44.2142 8.50921 44.0303C8.46441 43.844 8.39367 43.6955 8.29699 43.5847C8.20267 43.4715 8.08006 43.4149 7.92914 43.4149ZM11.1584 42.9657C11.2126 42.9657 11.2669 42.9704 11.3211 42.9798C11.3753 42.9869 11.4319 42.9999 11.4909 43.0187L11.406 43.5776C11.3636 43.5587 11.3188 43.5458 11.2716 43.5387C11.2244 43.5316 11.1737 43.5281 11.1195 43.5281C11.0134 43.5281 10.9155 43.5634 10.8259 43.6342C10.7387 43.7026 10.6632 43.7992 10.5996 43.9242C10.5359 44.0492 10.4864 44.1942 10.451 44.3593C10.418 44.5243 10.4027 44.7023 10.405 44.8933V46.9165H9.86034V43.0329H10.2848L10.3591 43.7226H10.3944C10.4487 43.5741 10.5123 43.4432 10.5854 43.33C10.6585 43.2168 10.7422 43.1284 10.8365 43.0647C10.9332 42.9987 11.0405 42.9657 11.1584 42.9657ZM12.7996 48.6567C12.4294 48.6567 12.1382 48.5624 11.9259 48.3737C11.7137 48.1851 11.6076 47.921 11.6076 47.5815C11.6076 47.315 11.6713 47.0969 11.7986 46.9271C11.9259 46.7573 12.0898 46.6442 12.2903 46.5876C12.1912 46.5404 12.1099 46.4697 12.0462 46.3753C11.9849 46.281 11.9542 46.169 11.9542 46.0393C11.9542 45.9073 11.9849 45.787 12.0462 45.6786C12.1099 45.5701 12.1983 45.4663 12.3115 45.3673C12.1606 45.2777 12.0415 45.1339 11.9542 44.9358C11.867 44.7377 11.8234 44.5102 11.8234 44.2532C11.8234 43.9891 11.8658 43.7615 11.9507 43.5705C12.0379 43.3772 12.1629 43.2274 12.3256 43.1213C12.4883 43.0152 12.6829 42.9622 12.9092 42.9622C12.98 42.9622 13.0424 42.9657 13.0967 42.9728C13.1509 42.9798 13.1993 42.9893 13.2417 43.0011C13.2841 43.0128 13.3219 43.027 13.3549 43.0435H14.3169V43.3937L13.797 43.4573C13.863 43.5634 13.9114 43.6849 13.942 43.8216C13.9727 43.956 13.988 44.0928 13.988 44.2319C13.988 44.6304 13.8937 44.944 13.705 45.1728C13.5164 45.3991 13.25 45.5123 12.9057 45.5123C12.7996 45.5123 12.7147 45.5017 12.651 45.4805C12.5874 45.5394 12.5308 45.6066 12.4812 45.6821C12.4341 45.7576 12.4105 45.8507 12.4105 45.9615C12.4105 46.0299 12.4258 46.09 12.4565 46.1419C12.4895 46.1938 12.5367 46.2339 12.598 46.2622C12.6593 46.2905 12.7347 46.3046 12.8243 46.3046H13.3832C13.6732 46.3046 13.896 46.3883 14.0517 46.5557C14.2097 46.7231 14.2886 46.9778 14.2886 47.3197C14.2886 47.7442 14.1601 48.0731 13.9031 48.3065C13.6485 48.54 13.2806 48.6567 12.7996 48.6567ZM12.842 48.2252C13.0472 48.2252 13.2181 48.1934 13.3549 48.1297C13.494 48.0684 13.5978 47.9741 13.6661 47.8467C13.7369 47.7194 13.7722 47.5614 13.7722 47.3728C13.7722 47.2195 13.7475 47.1016 13.698 47.0191C13.6508 46.9365 13.5824 46.88 13.4928 46.8493C13.4032 46.8186 13.2959 46.8033 13.171 46.8033H12.7076C12.5991 46.8033 12.5001 46.8281 12.4105 46.8776C12.3233 46.9248 12.2537 47.0014 12.2018 47.1075C12.1499 47.2136 12.124 47.3551 12.124 47.5319C12.124 47.7607 12.1877 47.9328 12.315 48.0483C12.4447 48.1662 12.6204 48.2252 12.842 48.2252ZM12.9092 45.1091C13.079 45.1091 13.2099 45.036 13.3018 44.8898C13.3961 44.7436 13.4433 44.529 13.4433 44.2461C13.4433 43.949 13.395 43.7273 13.2983 43.5811C13.204 43.4349 13.0719 43.3618 12.9021 43.3618C12.7371 43.3618 12.6074 43.4408 12.5131 43.5988C12.4188 43.7544 12.3716 43.9737 12.3716 44.2567C12.3716 44.5279 12.4164 44.7377 12.506 44.8863C12.5956 45.0348 12.73 45.1091 12.9092 45.1091ZM15.3745 43.0329V46.9165H14.8333V43.0329H15.3745ZM15.1128 41.5757C15.2236 41.5757 15.3038 41.611 15.3533 41.6818C15.4052 41.7525 15.4311 41.8504 15.4311 41.9753C15.4311 42.0979 15.404 42.1946 15.3497 42.2654C15.2955 42.3361 15.2165 42.3715 15.1128 42.3715C15.0114 42.3715 14.9312 42.3361 14.8723 42.2654C14.8133 42.1946 14.7838 42.0979 14.7838 41.9753C14.7838 41.8456 14.8121 41.7466 14.8687 41.6782C14.9253 41.6098 15.0067 41.5757 15.1128 41.5757ZM17.3658 42.9622C17.7242 42.9622 17.9801 43.0765 18.1334 43.3052C18.2866 43.534 18.3633 43.8653 18.3633 44.2991V46.9165H17.9494L17.8681 46.3647H17.8539C17.7926 46.4968 17.7195 46.61 17.6346 46.7043C17.5498 46.7962 17.4531 46.867 17.3446 46.9165C17.2361 46.9637 17.1112 46.9872 16.9697 46.9872C16.7693 46.9872 16.6054 46.9342 16.478 46.8281C16.3507 46.722 16.2564 46.5828 16.1951 46.4107C16.1338 46.2362 16.1031 46.0488 16.1031 45.8483C16.1031 45.464 16.2139 45.1657 16.4356 44.9535C16.6573 44.7413 16.972 44.6257 17.38 44.6069L17.8221 44.5786V44.3133C17.8221 44.002 17.7797 43.7745 17.6948 43.6306C17.6099 43.4868 17.4731 43.4149 17.2845 43.4149C17.176 43.4149 17.0616 43.4338 16.9414 43.4715C16.8235 43.5092 16.695 43.5693 16.5559 43.6519L16.3825 43.2416C16.5287 43.1473 16.6844 43.0777 16.8494 43.0329C17.0168 42.9857 17.189 42.9622 17.3658 42.9622ZM17.8292 44.9782L17.4684 45.003C17.1949 45.0195 16.9909 45.0973 16.8565 45.2364C16.7245 45.3732 16.6584 45.5724 16.6584 45.8342C16.6584 46.0771 16.7021 46.2563 16.7893 46.3718C16.8765 46.4873 16.9968 46.5451 17.1501 46.5451C17.3646 46.5451 17.5309 46.4414 17.6488 46.2339C17.769 46.0264 17.8292 45.7399 17.8292 45.3744V44.9782ZM22.8694 45.5052C22.8694 45.7976 22.8128 46.0558 22.6996 46.2798C22.5888 46.5015 22.432 46.6748 22.2292 46.7998C22.0288 46.9248 21.7918 46.9872 21.5182 46.9872C21.3838 46.9872 21.2542 46.979 21.1292 46.9625C21.0042 46.9483 20.8851 46.9248 20.7719 46.8917C20.6611 46.8587 20.555 46.8175 20.4536 46.768V46.1843C20.614 46.274 20.7873 46.3423 20.9736 46.3895C21.1622 46.4367 21.3367 46.4602 21.497 46.4602C21.6692 46.4602 21.8142 46.4201 21.9321 46.34C22.05 46.2574 22.1396 46.1478 22.2009 46.011C22.2646 45.8743 22.2964 45.7234 22.2964 45.5583C22.2964 45.3838 22.2704 45.2376 22.2186 45.1197C22.1667 44.9995 22.0818 44.891 21.9639 44.7943C21.846 44.6976 21.6868 44.5974 21.4864 44.4937C21.3355 44.4111 21.1987 44.3263 21.0761 44.239C20.9535 44.1518 20.8486 44.0539 20.7613 43.9454C20.6741 43.8346 20.6069 43.7049 20.5597 43.5564C20.5126 43.4078 20.489 43.231 20.489 43.0258C20.4843 42.7546 20.5373 42.5177 20.6482 42.3149C20.7613 42.1097 20.917 41.9506 21.115 41.8374C21.3155 41.7242 21.5442 41.6688 21.8012 41.6712C21.9969 41.6712 22.1832 41.6959 22.3601 41.7454C22.5393 41.7926 22.6937 41.8504 22.8234 41.9187L22.6395 42.4351C22.4956 42.3573 22.353 42.2996 22.2115 42.2618C22.0724 42.2217 21.9392 42.2017 21.8118 42.2017C21.6538 42.2017 21.5182 42.2359 21.4051 42.3043C21.2942 42.3727 21.2082 42.467 21.1469 42.5872C21.0879 42.7051 21.0584 42.8431 21.0584 43.0011C21.0584 43.1826 21.0844 43.3324 21.1363 43.4503C21.1905 43.5682 21.2766 43.6731 21.3945 43.765C21.5147 43.857 21.6727 43.956 21.8684 44.0622C22.0924 44.1801 22.2787 44.3074 22.4273 44.4441C22.5758 44.5786 22.6866 44.7318 22.7597 44.904C22.8328 45.0761 22.8694 45.2765 22.8694 45.5052ZM25.943 43.0329V46.9165H25.508L25.4478 46.3647H25.4089C25.3571 46.4921 25.2887 46.6029 25.2038 46.6972C25.1213 46.7892 25.0258 46.8611 24.9173 46.913C24.8088 46.9625 24.6874 46.9872 24.553 46.9872C24.3266 46.9872 24.1439 46.9307 24.0048 46.8175C23.868 46.7043 23.7678 46.5428 23.7041 46.3329C23.6428 46.123 23.6121 45.8731 23.6121 45.5831V43.0329H24.1568V45.4805C24.1568 45.8295 24.1969 46.0865 24.2771 46.2516C24.3596 46.4166 24.4846 46.4991 24.652 46.4991C24.8336 46.4991 24.9786 46.4496 25.0871 46.3506C25.1955 46.2492 25.2745 46.0971 25.324 45.8943C25.3736 45.6892 25.3983 45.4298 25.3983 45.1162V43.0329H25.943ZM28.6205 45.8908C28.6205 46.1242 28.5781 46.3235 28.4932 46.4885C28.4083 46.6512 28.2845 46.775 28.1218 46.8599C27.9615 46.9448 27.7657 46.9872 27.5347 46.9872C27.3555 46.9872 27.1916 46.966 27.043 46.9236C26.8945 46.8811 26.7683 46.8304 26.6646 46.7715V46.2056C26.7683 46.2905 26.8968 46.3612 27.0501 46.4178C27.2034 46.472 27.359 46.4991 27.517 46.4991C27.6985 46.4991 27.8377 46.4473 27.9343 46.3435C28.0334 46.2398 28.0829 46.0947 28.0829 45.9085C28.0829 45.7976 28.0629 45.7021 28.0228 45.622C27.9827 45.5394 27.9178 45.4616 27.8282 45.3885C27.741 45.3131 27.6254 45.2341 27.4816 45.1515C27.3213 45.0525 27.1786 44.9499 27.0536 44.8438C26.931 44.7377 26.8355 44.6163 26.7671 44.4795C26.6988 44.3404 26.6646 44.1718 26.6646 43.9737C26.6646 43.6719 26.7624 43.4279 26.9581 43.2416C27.1562 43.0553 27.4168 42.9622 27.7398 42.9622C27.9025 42.9622 28.0558 42.9834 28.1996 43.0258C28.3458 43.0659 28.4838 43.1272 28.6134 43.2097L28.4083 43.6483C28.3093 43.5799 28.2032 43.5257 28.09 43.4856C27.9791 43.4455 27.8648 43.4255 27.7469 43.4255C27.5748 43.4255 27.438 43.4738 27.3366 43.5705C27.2376 43.6672 27.188 43.7969 27.188 43.9596C27.188 44.0681 27.2081 44.1612 27.2482 44.239C27.2883 44.3168 27.3543 44.3923 27.4462 44.4654C27.5382 44.5385 27.6596 44.621 27.8106 44.713C27.9709 44.8144 28.1112 44.9181 28.2315 45.0242C28.3541 45.128 28.4496 45.2482 28.5179 45.385C28.5863 45.5218 28.6205 45.6903 28.6205 45.8908ZM30.2405 46.5062C30.2994 46.5062 30.3584 46.5003 30.4173 46.4885C30.4763 46.4744 30.5329 46.4555 30.5871 46.4319V46.8776C30.514 46.9106 30.435 46.9365 30.3501 46.9554C30.2652 46.9766 30.1709 46.9872 30.0671 46.9872C29.8997 46.9872 29.7618 46.9495 29.6533 46.8741C29.5472 46.7986 29.4682 46.6866 29.4163 46.538C29.3668 46.3871 29.3421 46.1985 29.3421 45.9721V43.4892H28.9813V43.1921L29.3668 43.047L29.5118 42.1522H29.8868V43.0329H30.5446V43.4892H29.8868V45.9085C29.8868 46.1089 29.9103 46.2586 29.9575 46.3577C30.007 46.4567 30.1013 46.5062 30.2405 46.5062ZM32.2353 42.9692C32.4994 42.9692 32.7164 43.0459 32.8861 43.1991C33.0583 43.3524 33.1856 43.5587 33.2681 43.8181C33.353 44.0775 33.3955 44.3663 33.3955 44.6847V45.0702H31.5456C31.5503 45.5536 31.6246 45.9167 31.7684 46.1596C31.9146 46.4025 32.1339 46.5239 32.4263 46.5239C32.5654 46.5239 32.7022 46.5027 32.8366 46.4602C32.971 46.4178 33.1101 46.3494 33.254 46.2551V46.7432C33.1196 46.8257 32.9793 46.887 32.8331 46.9271C32.6869 46.9672 32.5312 46.9872 32.3662 46.9872C32.0431 46.9872 31.7814 46.9012 31.581 46.729C31.3805 46.5546 31.2344 46.3176 31.1424 46.0181C31.0528 45.7163 31.008 45.3756 31.008 44.9959C31.008 44.562 31.054 44.1942 31.1459 43.8924C31.2379 43.5906 31.3747 43.3618 31.5562 43.2062C31.7401 43.0482 31.9665 42.9692 32.2353 42.9692ZM32.2353 43.4149C32.0302 43.4149 31.8698 43.5151 31.7543 43.7155C31.6387 43.9136 31.5715 44.2201 31.5527 44.6351H32.8861C32.8861 44.4159 32.8625 44.2142 32.8154 44.0303C32.7706 43.844 32.6998 43.6955 32.6032 43.5847C32.5088 43.4715 32.3862 43.4149 32.2353 43.4149ZM35.5636 42.9622C35.8702 42.9622 36.1024 43.0694 36.2604 43.284C36.4184 43.4986 36.4974 43.8275 36.4974 44.2708V46.9165H35.9527V44.3805C35.9527 44.0669 35.9114 43.8323 35.8289 43.6766C35.7487 43.521 35.6214 43.4432 35.4469 43.4432C35.1922 43.4432 35.006 43.5564 34.8881 43.7827C34.7702 44.0091 34.7112 44.3722 34.7112 44.8721V46.9165H34.1665V43.0329H34.6016L34.6617 43.5953H34.6971C34.7513 43.4656 34.8209 43.3536 34.9057 43.2593C34.9906 43.1649 35.0885 43.0918 35.1993 43.04C35.3101 42.9881 35.4316 42.9622 35.5636 42.9622ZM38.3472 46.5062C38.4062 46.5062 38.4651 46.5003 38.5241 46.4885C38.583 46.4744 38.6396 46.4555 38.6939 46.4319V46.8776C38.6208 46.9106 38.5418 46.9365 38.4569 46.9554C38.372 46.9766 38.2777 46.9872 38.1739 46.9872C38.0065 46.9872 37.8686 46.9495 37.7601 46.8741C37.654 46.7986 37.575 46.6866 37.5231 46.538C37.4736 46.3871 37.4488 46.1985 37.4488 45.9721V43.4892H37.0881V43.1921L37.4736 43.047L37.6186 42.1522H37.9935V43.0329H38.6514V43.4892H37.9935V45.9085C37.9935 46.1089 38.0171 46.2586 38.0643 46.3577C38.1138 46.4567 38.2081 46.5062 38.3472 46.5062ZM40.3138 42.9622C40.6722 42.9622 40.9281 43.0765 41.0813 43.3052C41.2346 43.534 41.3112 43.8653 41.3112 44.2991V46.9165H40.8974L40.8161 46.3647H40.8019C40.7406 46.4968 40.6675 46.61 40.5826 46.7043C40.4977 46.7962 40.401 46.867 40.2926 46.9165C40.1841 46.9637 40.0591 46.9872 39.9177 46.9872C39.7172 46.9872 39.5533 46.9342 39.426 46.8281C39.2987 46.722 39.2044 46.5828 39.1431 46.4107C39.0817 46.2362 39.0511 46.0488 39.0511 45.8483C39.0511 45.464 39.1619 45.1657 39.3836 44.9535C39.6052 44.7413 39.92 44.6257 40.3279 44.6069L40.7701 44.5786V44.3133C40.7701 44.002 40.7276 43.7745 40.6427 43.6306C40.5579 43.4868 40.4211 43.4149 40.2324 43.4149C40.124 43.4149 40.0096 43.4338 39.8894 43.4715C39.7715 43.5092 39.643 43.5693 39.5038 43.6519L39.3305 43.2416C39.4767 43.1473 39.6323 43.0777 39.7974 43.0329C39.9648 42.9857 40.1369 42.9622 40.3138 42.9622ZM40.7771 44.9782L40.4164 45.003C40.1428 45.0195 39.9389 45.0973 39.8045 45.2364C39.6724 45.3732 39.6064 45.5724 39.6064 45.8342C39.6064 46.0771 39.65 46.2563 39.7373 46.3718C39.8245 46.4873 39.9448 46.5451 40.098 46.5451C40.3126 46.5451 40.4789 46.4414 40.5968 46.2339C40.717 46.0264 40.7771 45.7399 40.7771 45.3744V44.9782ZM42.7791 46.9165L41.8064 43.0329H42.3653L42.8993 45.3921C42.9324 45.5335 42.9618 45.6786 42.9878 45.8271C43.0161 45.9757 43.042 46.1301 43.0656 46.2905H43.0939C43.1057 46.1985 43.1233 46.0877 43.1469 45.958C43.1705 45.8283 43.2012 45.6845 43.2389 45.5265L43.8119 43.0329H44.3707L43.3839 46.9165H42.7791ZM45.9447 42.9692C46.2088 42.9692 46.4257 43.0459 46.5955 43.1991C46.7676 43.3524 46.895 43.5587 46.9775 43.8181C47.0624 44.0775 47.1048 44.3663 47.1048 44.6847V45.0702H45.255C45.2597 45.5536 45.334 45.9167 45.4778 46.1596C45.624 46.4025 45.8433 46.5239 46.1357 46.5239C46.2748 46.5239 46.4116 46.5027 46.546 46.4602C46.6804 46.4178 46.8195 46.3494 46.9633 46.2551V46.7432C46.8289 46.8257 46.6886 46.887 46.5424 46.9271C46.3962 46.9672 46.2406 46.9872 46.0756 46.9872C45.7525 46.9872 45.4908 46.9012 45.2903 46.729C45.0899 46.5546 44.9437 46.3176 44.8518 46.0181C44.7622 45.7163 44.7173 45.3756 44.7173 44.9959C44.7173 44.562 44.7633 44.1942 44.8553 43.8924C44.9473 43.5906 45.084 43.3618 45.2656 43.2062C45.4495 43.0482 45.6759 42.9692 45.9447 42.9692ZM45.9447 43.4149C45.7395 43.4149 45.5792 43.5151 45.4637 43.7155C45.3481 43.9136 45.2809 44.2201 45.262 44.6351H46.5955C46.5955 44.4159 46.5719 44.2142 46.5247 44.0303C46.4799 43.844 46.4092 43.6955 46.3125 43.5847C46.2182 43.4715 46.0956 43.4149 45.9447 43.4149ZM48.4206 46.9165H47.8759V41.413H48.4206V46.9165ZM51.7736 42.9692C52.0377 42.9692 52.2547 43.0459 52.4244 43.1991C52.5966 43.3524 52.7239 43.5587 52.8064 43.8181C52.8913 44.0775 52.9338 44.3663 52.9338 44.6847V45.0702H51.0839C51.0886 45.5536 51.1629 45.9167 51.3068 46.1596C51.453 46.4025 51.6722 46.5239 51.9646 46.5239C52.1038 46.5239 52.2405 46.5027 52.3749 46.4602C52.5093 46.4178 52.6485 46.3494 52.7923 46.2551V46.7432C52.6579 46.8257 52.5176 46.887 52.3714 46.9271C52.2252 46.9672 52.0696 46.9872 51.9045 46.9872C51.5815 46.9872 51.3197 46.9012 51.1193 46.729C50.9189 46.5546 50.7727 46.3176 50.6807 46.0181C50.5911 45.7163 50.5463 45.3756 50.5463 44.9959C50.5463 44.562 50.5923 44.1942 50.6842 43.8924C50.7762 43.5906 50.913 43.3618 51.0945 43.2062C51.2785 43.0482 51.5048 42.9692 51.7736 42.9692ZM51.7736 43.4149C51.5685 43.4149 51.4082 43.5151 51.2926 43.7155C51.1771 43.9136 51.1099 44.2201 51.091 44.6351H52.4244C52.4244 44.4159 52.4009 44.2142 52.3537 44.0303C52.3089 43.844 52.2382 43.6955 52.1415 43.5847C52.0472 43.4715 51.9246 43.4149 51.7736 43.4149ZM57.1817 46.9165L56.7926 45.2541H55.5653L55.1762 46.9165H54.5749L55.8235 41.7454H56.5061L57.7794 46.9165H57.1817ZM56.6865 44.7342L56.2904 42.9798C56.2739 42.8926 56.2574 42.8077 56.2409 42.7252C56.2267 42.6403 56.2126 42.5589 56.1984 42.4811C56.1866 42.401 56.1748 42.3231 56.163 42.2477C56.156 42.3231 56.1465 42.401 56.1347 42.4811C56.123 42.5613 56.1088 42.6426 56.0923 42.7252C56.0758 42.8053 56.0581 42.8879 56.0392 42.9728L55.6537 44.7342H56.6865ZM59.3746 46.9872C59.0893 46.9872 58.8512 46.913 58.6602 46.7644C58.4715 46.6159 58.33 46.3942 58.2357 46.0995C58.1414 45.8047 58.0942 45.4392 58.0942 45.003C58.0942 44.5762 58.1414 44.2107 58.2357 43.9065C58.3324 43.6023 58.4774 43.3689 58.6708 43.2062C58.8641 43.0435 59.1058 42.9622 59.3958 42.9622C59.542 42.9622 59.6729 42.9775 59.7885 43.0081C59.9064 43.0388 60.016 43.0824 60.1174 43.139L59.9441 43.5882C59.8568 43.541 59.7696 43.5057 59.6823 43.4821C59.5975 43.4585 59.5137 43.4467 59.4312 43.4467C59.2614 43.4467 59.1188 43.5057 59.0032 43.6236C58.8877 43.7391 58.7993 43.9112 58.738 44.14C58.679 44.3687 58.6495 44.654 58.6495 44.9959C58.6495 45.3284 58.6778 45.6066 58.7344 45.8306C58.7934 46.0547 58.8806 46.2244 58.9962 46.34C59.1141 46.4532 59.2603 46.5098 59.4348 46.5098C59.5385 46.5098 59.6434 46.4956 59.7495 46.4673C59.858 46.4367 59.9665 46.393 60.075 46.3364V46.7962C59.9759 46.8576 59.8604 46.9047 59.7283 46.9377C59.5986 46.9707 59.4807 46.9872 59.3746 46.9872ZM61.8116 42.9692C62.0757 42.9692 62.2926 43.0459 62.4624 43.1991C62.6346 43.3524 62.7619 43.5587 62.8444 43.8181C62.9293 44.0775 62.9717 44.3663 62.9717 44.6847V45.0702H61.1219C61.1266 45.5536 61.2009 45.9167 61.3447 46.1596C61.4909 46.4025 61.7102 46.5239 62.0026 46.5239C62.1417 46.5239 62.2785 46.5027 62.4129 46.4602C62.5473 46.4178 62.6864 46.3494 62.8303 46.2551V46.7432C62.6959 46.8257 62.5556 46.887 62.4094 46.9271C62.2632 46.9672 62.1075 46.9872 61.9425 46.9872C61.6194 46.9872 61.3577 46.9012 61.1573 46.729C60.9568 46.5546 60.8106 46.3176 60.7187 46.0181C60.6291 45.7163 60.5843 45.3756 60.5843 44.9959C60.5843 44.562 60.6303 44.1942 60.7222 43.8924C60.8142 43.5906 60.9509 43.3618 61.1325 43.2062C61.3164 43.0482 61.5428 42.9692 61.8116 42.9692ZM61.8116 43.4149C61.6065 43.4149 61.4461 43.5151 61.3306 43.7155C61.215 43.9136 61.1478 44.2201 61.129 44.6351H62.4624C62.4624 44.4159 62.4388 44.2142 62.3917 44.0303C62.3469 43.844 62.2761 43.6955 62.1795 43.5847C62.0851 43.4715 61.9625 43.4149 61.8116 43.4149ZM65.4689 45.8908C65.4689 46.1242 65.4264 46.3235 65.3415 46.4885C65.2566 46.6512 65.1328 46.775 64.9701 46.8599C64.8098 46.9448 64.6141 46.9872 64.383 46.9872C64.2038 46.9872 64.0399 46.966 63.8914 46.9236C63.7428 46.8811 63.6167 46.8304 63.5129 46.7715V46.2056C63.6167 46.2905 63.7452 46.3612 63.8984 46.4178C64.0517 46.472 64.2073 46.4991 64.3653 46.4991C64.5469 46.4991 64.686 46.4473 64.7827 46.3435C64.8817 46.2398 64.9312 46.0947 64.9312 45.9085C64.9312 45.7976 64.9112 45.7021 64.8711 45.622C64.831 45.5394 64.7662 45.4616 64.6766 45.3885C64.5893 45.3131 64.4738 45.2341 64.3299 45.1515C64.1696 45.0525 64.0269 44.9499 63.902 44.8438C63.7794 44.7377 63.6839 44.6163 63.6155 44.4795C63.5471 44.3404 63.5129 44.1718 63.5129 43.9737C63.5129 43.6719 63.6108 43.4279 63.8065 43.2416C64.0045 43.0553 64.2651 42.9622 64.5881 42.9622C64.7508 42.9622 64.9041 42.9834 65.048 43.0258C65.1941 43.0659 65.3321 43.1272 65.4618 43.2097L65.2566 43.6483C65.1576 43.5799 65.0515 43.5257 64.9383 43.4856C64.8275 43.4455 64.7131 43.4255 64.5952 43.4255C64.4231 43.4255 64.2863 43.4738 64.1849 43.5705C64.0859 43.6672 64.0364 43.7969 64.0364 43.9596C64.0364 44.0681 64.0564 44.1612 64.0965 44.239C64.1366 44.3168 64.2026 44.3923 64.2946 44.4654C64.3865 44.5385 64.508 44.621 64.6589 44.713C64.8192 44.8144 64.9595 44.9181 65.0798 45.0242C65.2024 45.128 65.2979 45.2482 65.3663 45.385C65.4347 45.5218 65.4689 45.6903 65.4689 45.8908ZM67.9023 45.8908C67.9023 46.1242 67.8599 46.3235 67.775 46.4885C67.6901 46.6512 67.5663 46.775 67.4036 46.8599C67.2432 46.9448 67.0475 46.9872 66.8164 46.9872C66.6372 46.9872 66.4734 46.966 66.3248 46.9236C66.1762 46.8811 66.0501 46.8304 65.9463 46.7715V46.2056C66.0501 46.2905 66.1786 46.3612 66.3319 46.4178C66.4851 46.472 66.6408 46.4991 66.7988 46.4991C66.9803 46.4991 67.1194 46.4473 67.2161 46.3435C67.3152 46.2398 67.3647 46.0947 67.3647 45.9085C67.3647 45.7976 67.3446 45.7021 67.3045 45.622C67.2645 45.5394 67.1996 45.4616 67.11 45.3885C67.0228 45.3131 66.9072 45.2341 66.7634 45.1515C66.603 45.0525 66.4604 44.9499 66.3354 44.8438C66.2128 44.7377 66.1173 44.6163 66.0489 44.4795C65.9805 44.3404 65.9463 44.1718 65.9463 43.9737C65.9463 43.6719 66.0442 43.4279 66.2399 43.2416C66.438 43.0553 66.6985 42.9622 67.0216 42.9622C67.1843 42.9622 67.3376 42.9834 67.4814 43.0258C67.6276 43.0659 67.7655 43.1272 67.8952 43.2097L67.6901 43.6483C67.591 43.5799 67.4849 43.5257 67.3718 43.4856C67.2609 43.4455 67.1466 43.4255 67.0287 43.4255C66.8565 43.4255 66.7198 43.4738 66.6184 43.5705C66.5193 43.6672 66.4698 43.7969 66.4698 43.9596C66.4698 44.0681 66.4899 44.1612 66.5299 44.239C66.57 44.3168 66.6361 44.3923 66.728 44.4654C66.82 44.5385 66.9414 44.621 67.0923 44.713C67.2527 44.8144 67.393 44.9181 67.5132 45.0242C67.6358 45.128 67.7313 45.2482 67.7997 45.385C67.8681 45.5218 67.9023 45.6903 67.9023 45.8908ZM69.1579 43.0329V46.9165H68.6168V43.0329H69.1579ZM68.8962 41.5757C69.007 41.5757 69.0872 41.611 69.1367 41.6818C69.1886 41.7525 69.2145 41.8504 69.2145 41.9753C69.2145 42.0979 69.1874 42.1946 69.1332 42.2654C69.0789 42.3361 68.9999 42.3715 68.8962 42.3715C68.7948 42.3715 68.7146 42.3361 68.6557 42.2654C68.5967 42.1946 68.5673 42.0979 68.5673 41.9753C68.5673 41.8456 68.5956 41.7466 68.6521 41.6782C68.7087 41.6098 68.7901 41.5757 68.8962 41.5757ZM70.6364 46.9165L69.6637 43.0329H70.2226L70.7567 45.3921C70.7897 45.5335 70.8191 45.6786 70.8451 45.8271C70.8734 45.9757 70.8993 46.1301 70.9229 46.2905H70.9512C70.963 46.1985 70.9807 46.0877 71.0042 45.958C71.0278 45.8283 71.0585 45.6845 71.0962 45.5265L71.6692 43.0329H72.228L71.2412 46.9165H70.6364ZM73.802 42.9692C74.0661 42.9692 74.283 43.0459 74.4528 43.1991C74.6249 43.3524 74.7523 43.5587 74.8348 43.8181C74.9197 44.0775 74.9621 44.3663 74.9621 44.6847V45.0702H73.1123C73.117 45.5536 73.1913 45.9167 73.3351 46.1596C73.4813 46.4025 73.7006 46.5239 73.993 46.5239C74.1321 46.5239 74.2689 46.5027 74.4033 46.4602C74.5377 46.4178 74.6768 46.3494 74.8207 46.2551V46.7432C74.6862 46.8257 74.5459 46.887 74.3997 46.9271C74.2536 46.9672 74.0979 46.9872 73.9329 46.9872C73.6098 46.9872 73.3481 46.9012 73.1477 46.729C72.9472 46.5546 72.801 46.3176 72.7091 46.0181C72.6195 45.7163 72.5747 45.3756 72.5747 44.9959C72.5747 44.562 72.6206 44.1942 72.7126 43.8924C72.8046 43.5906 72.9413 43.3618 73.1229 43.2062C73.3068 43.0482 73.5332 42.9692 73.802 42.9692ZM73.802 43.4149C73.5969 43.4149 73.4365 43.5151 73.321 43.7155C73.2054 43.9136 73.1382 44.2201 73.1194 44.6351H74.4528C74.4528 44.4159 74.4292 44.2142 74.3821 44.0303C74.3373 43.844 74.2665 43.6955 74.1698 43.5847C74.0755 43.4715 73.9529 43.4149 73.802 43.4149ZM76.2779 46.9165H75.7332V41.413H76.2779V46.9165ZM79.967 42.9622C80.3395 42.9622 80.6213 43.1296 80.8123 43.4644C81.0057 43.7969 81.1023 44.298 81.1023 44.9676C81.1023 45.3991 81.0587 45.7658 80.9715 46.0676C80.8866 46.3671 80.7616 46.5958 80.5966 46.7538C80.4315 46.9094 80.2311 46.9872 79.9953 46.9872C79.8632 46.9872 79.7406 46.9625 79.6274 46.913C79.5142 46.8611 79.414 46.7892 79.3268 46.6972C79.2395 46.6029 79.1664 46.4932 79.1075 46.3683H79.0827C79.0874 46.4626 79.0922 46.5534 79.0969 46.6406C79.1039 46.7279 79.1075 46.8104 79.1075 46.8882V48.6496H78.5628V43.0329H79.0049L79.0721 43.6023H79.1039C79.17 43.4585 79.2454 43.3394 79.3303 43.2451C79.4176 43.1508 79.5142 43.0801 79.6203 43.0329C79.7265 42.9857 79.842 42.9622 79.967 42.9622ZM79.8502 43.4326C79.6852 43.4326 79.5472 43.4844 79.4364 43.5882C79.328 43.692 79.2454 43.8488 79.1888 44.0586C79.1346 44.2661 79.1075 44.5279 79.1075 44.8438V45.0313C79.1075 45.3661 79.1346 45.6432 79.1888 45.8625C79.2454 46.0818 79.3291 46.2445 79.44 46.3506C79.5531 46.4567 79.6923 46.5098 79.8573 46.5098C80.0082 46.5098 80.1344 46.4555 80.2358 46.347C80.3395 46.2386 80.4173 46.0712 80.4692 45.8448C80.5211 45.6184 80.547 45.3284 80.547 44.9747C80.547 44.463 80.4928 44.0787 80.3843 43.8216C80.2782 43.5623 80.1002 43.4326 79.8502 43.4326ZM82.9203 42.9622C83.2788 42.9622 83.5346 43.0765 83.6879 43.3052C83.8411 43.534 83.9178 43.8653 83.9178 44.2991V46.9165H83.504L83.4226 46.3647H83.4085C83.3471 46.4968 83.274 46.61 83.1892 46.7043C83.1043 46.7962 83.0076 46.867 82.8991 46.9165C82.7907 46.9637 82.6657 46.9872 82.5242 46.9872C82.3238 46.9872 82.1599 46.9342 82.0326 46.8281C81.9052 46.722 81.8109 46.5828 81.7496 46.4107C81.6883 46.2362 81.6576 46.0488 81.6576 45.8483C81.6576 45.464 81.7685 45.1657 81.9901 44.9535C82.2118 44.7413 82.5266 44.6257 82.9345 44.6069L83.3766 44.5786V44.3133C83.3766 44.002 83.3342 43.7745 83.2493 43.6306C83.1644 43.4868 83.0276 43.4149 82.839 43.4149C82.7305 43.4149 82.6162 43.4338 82.4959 43.4715C82.378 43.5092 82.2495 43.5693 82.1104 43.6519L81.9371 43.2416C82.0833 43.1473 82.2389 43.0777 82.4039 43.0329C82.5714 42.9857 82.7435 42.9622 82.9203 42.9622ZM83.3837 44.9782L83.0229 45.003C82.7494 45.0195 82.5454 45.0973 82.411 45.2364C82.279 45.3732 82.213 45.5724 82.213 45.8342C82.213 46.0771 82.2566 46.2563 82.3438 46.3718C82.4311 46.4873 82.5513 46.5451 82.7046 46.5451C82.9192 46.5451 83.0854 46.4414 83.2033 46.2339C83.3236 46.0264 83.3837 45.7399 83.3837 45.3744V44.9782ZM86.1567 42.9657C86.2109 42.9657 86.2652 42.9704 86.3194 42.9798C86.3736 42.9869 86.4302 42.9999 86.4892 43.0187L86.4043 43.5776C86.3618 43.5587 86.317 43.5458 86.2699 43.5387C86.2227 43.5316 86.172 43.5281 86.1178 43.5281C86.0117 43.5281 85.9138 43.5634 85.8242 43.6342C85.737 43.7026 85.6615 43.7992 85.5979 43.9242C85.5342 44.0492 85.4847 44.1942 85.4493 44.3593C85.4163 44.5243 85.401 44.7023 85.4033 44.8933V46.9165H84.8586V43.0329H85.2831L85.3573 43.7226H85.3927C85.4469 43.5741 85.5106 43.4432 85.5837 43.33C85.6568 43.2168 85.7405 43.1284 85.8348 43.0647C85.9315 42.9987 86.0388 42.9657 86.1567 42.9657ZM88.0702 42.9622C88.4286 42.9622 88.6845 43.0765 88.8377 43.3052C88.991 43.534 89.0676 43.8653 89.0676 44.2991V46.9165H88.6538L88.5725 46.3647H88.5583C88.497 46.4968 88.4239 46.61 88.339 46.7043C88.2541 46.7962 88.1574 46.867 88.049 46.9165C87.9405 46.9637 87.8155 46.9872 87.6741 46.9872C87.4736 46.9872 87.3098 46.9342 87.1824 46.8281C87.0551 46.722 86.9608 46.5828 86.8995 46.4107C86.8382 46.2362 86.8075 46.0488 86.8075 45.8483C86.8075 45.464 86.9183 45.1657 87.14 44.9535C87.3616 44.7413 87.6764 44.6257 88.0844 44.6069L88.5265 44.5786V44.3133C88.5265 44.002 88.484 43.7745 88.3991 43.6306C88.3143 43.4868 88.1775 43.4149 87.9889 43.4149C87.8804 43.4149 87.766 43.4338 87.6458 43.4715C87.5279 43.5092 87.3994 43.5693 87.2602 43.6519L87.0869 43.2416C87.2331 43.1473 87.3887 43.0777 87.5538 43.0329C87.7212 42.9857 87.8934 42.9622 88.0702 42.9622ZM88.5335 44.9782L88.1728 45.003C87.8992 45.0195 87.6953 45.0973 87.5609 45.2364C87.4288 45.3732 87.3628 45.5724 87.3628 45.8342C87.3628 46.0771 87.4064 46.2563 87.4937 46.3718C87.5809 46.4873 87.7012 46.5451 87.8544 46.5451C88.069 46.5451 88.2353 46.4414 88.3532 46.2339C88.4734 46.0264 88.5335 45.7399 88.5335 45.3744V44.9782ZM92.2651 46.5062C92.324 46.5062 92.383 46.5003 92.4419 46.4885C92.5009 46.4744 92.5575 46.4555 92.6117 46.4319V46.8776C92.5386 46.9106 92.4596 46.9365 92.3747 46.9554C92.2898 46.9766 92.1955 46.9872 92.0918 46.9872C91.9243 46.9872 91.7864 46.9495 91.6779 46.8741C91.5718 46.7986 91.4928 46.6866 91.441 46.538C91.3914 46.3871 91.3667 46.1985 91.3667 45.9721V43.4892H91.0059V43.1921L91.3914 43.047L91.5365 42.1522H91.9114V43.0329H92.5693V43.4892H91.9114V45.9085C91.9114 46.1089 91.935 46.2586 91.9821 46.3577C92.0316 46.4567 92.1259 46.5062 92.2651 46.5062ZM95.6004 44.9712C95.6004 45.2777 95.5745 45.5548 95.5226 45.8024C95.4708 46.0499 95.3918 46.2622 95.2857 46.439C95.1795 46.6159 95.0451 46.7514 94.8824 46.8458C94.7197 46.9401 94.5276 46.9872 94.3059 46.9872C94.0937 46.9872 93.9074 46.9401 93.7471 46.8458C93.5867 46.7514 93.4535 46.617 93.3474 46.4425C93.2413 46.2657 93.1611 46.0535 93.1069 45.8059C93.0526 45.5559 93.0255 45.2777 93.0255 44.9712C93.0255 44.542 93.0715 44.1789 93.1635 43.8818C93.2554 43.5823 93.3969 43.3548 93.5879 43.1991C93.7789 43.0411 94.0218 42.9622 94.3165 42.9622C94.5924 42.9622 94.8258 43.0388 95.0168 43.1921C95.2078 43.343 95.3529 43.5682 95.4519 43.8676C95.5509 44.1647 95.6004 44.5326 95.6004 44.9712ZM93.5808 44.9712C93.5808 45.3084 93.6068 45.5913 93.6586 45.82C93.7105 46.0488 93.7907 46.2209 93.8992 46.3364C94.01 46.452 94.1503 46.5098 94.3201 46.5098C94.4875 46.5098 94.6242 46.4532 94.7303 46.34C94.8388 46.2268 94.919 46.057 94.9709 45.8306C95.0227 45.6019 95.0487 45.3154 95.0487 44.9712C95.0487 44.634 95.0227 44.3522 94.9709 44.1258C94.919 43.8971 94.8388 43.7261 94.7303 43.613C94.6242 43.4974 94.4863 43.4396 94.3165 43.4396C94.0571 43.4396 93.8697 43.5682 93.7541 43.8252C93.6386 44.0798 93.5808 44.4618 93.5808 44.9712ZM97.3477 46.9872C96.9775 46.9872 96.6957 46.8175 96.5024 46.4779C96.3114 46.136 96.2159 45.6385 96.2159 44.9853C96.2159 44.3369 96.3126 43.8381 96.5059 43.4892C96.6993 43.1378 96.974 42.9622 97.33 42.9622C97.455 42.9622 97.5729 42.9869 97.6837 43.0364C97.7946 43.0836 97.8936 43.152 97.9808 43.2416C98.0705 43.3288 98.1459 43.4349 98.2072 43.5599H98.232C98.2273 43.4514 98.2225 43.3548 98.2178 43.2699C98.2155 43.1826 98.2143 43.1013 98.2143 43.0258V41.413H98.7554V46.9165H98.3204L98.2461 46.393H98.2143C98.1483 46.5156 98.0728 46.6218 97.9879 46.7114C97.9054 46.801 97.8111 46.8693 97.705 46.9165C97.6012 46.9637 97.4821 46.9872 97.3477 46.9872ZM97.468 46.5239C97.7132 46.5239 97.8983 46.4095 98.0233 46.1808C98.1506 45.9521 98.2143 45.6137 98.2143 45.1657V44.9004C98.2143 44.4076 98.153 44.0421 98.0304 43.804C97.9101 43.5658 97.7203 43.4467 97.4609 43.4467C97.2251 43.4467 97.0506 43.5788 96.9374 43.8429C96.8266 44.1046 96.7712 44.4854 96.7712 44.9853C96.7712 45.4899 96.8266 45.8731 96.9374 46.1348C97.0506 46.3942 97.2275 46.5239 97.468 46.5239ZM102.109 44.9712C102.109 45.2777 102.083 45.5548 102.031 45.8024C101.979 46.0499 101.9 46.2622 101.794 46.439C101.688 46.6159 101.553 46.7514 101.39 46.8458C101.228 46.9401 101.036 46.9872 100.814 46.9872C100.602 46.9872 100.415 46.9401 100.255 46.8458C100.095 46.7514 99.9616 46.617 99.8554 46.4425C99.7493 46.2657 99.6692 46.0535 99.6149 45.8059C99.5607 45.5559 99.5336 45.2777 99.5336 44.9712C99.5336 44.542 99.5796 44.1789 99.6715 43.8818C99.7635 43.5823 99.905 43.3548 100.096 43.1991C100.287 43.0411 100.53 42.9622 100.825 42.9622C101.1 42.9622 101.334 43.0388 101.525 43.1921C101.716 43.343 101.861 43.5682 101.96 43.8676C102.059 44.1647 102.109 44.5326 102.109 44.9712ZM100.089 44.9712C100.089 45.3084 100.115 45.5913 100.167 45.82C100.219 46.0488 100.299 46.2209 100.407 46.3364C100.518 46.452 100.658 46.5098 100.828 46.5098C100.996 46.5098 101.132 46.4532 101.238 46.34C101.347 46.2268 101.427 46.057 101.479 45.8306C101.531 45.6019 101.557 45.3154 101.557 44.9712C101.557 44.634 101.531 44.3522 101.479 44.1258C101.427 43.8971 101.347 43.7261 101.238 43.613C101.132 43.4974 100.994 43.4396 100.825 43.4396C100.565 43.4396 100.378 43.5682 100.262 43.8252C100.147 44.0798 100.089 44.4618 100.089 44.9712ZM104.616 45.8908C104.616 46.1242 104.574 46.3235 104.489 46.4885C104.404 46.6512 104.28 46.775 104.118 46.8599C103.957 46.9448 103.761 46.9872 103.53 46.9872C103.351 46.9872 103.187 46.966 103.039 46.9236C102.89 46.8811 102.764 46.8304 102.66 46.7715V46.2056C102.764 46.2905 102.893 46.3612 103.046 46.4178C103.199 46.472 103.355 46.4991 103.513 46.4991C103.694 46.4991 103.833 46.4473 103.93 46.3435C104.029 46.2398 104.079 46.0947 104.079 45.9085C104.079 45.7976 104.059 45.7021 104.018 45.622C103.978 45.5394 103.914 45.4616 103.824 45.3885C103.737 45.3131 103.621 45.2341 103.477 45.1515C103.317 45.0525 103.174 44.9499 103.049 44.8438C102.927 44.7377 102.831 44.6163 102.763 44.4795C102.694 44.3404 102.66 44.1718 102.66 43.9737C102.66 43.6719 102.758 43.4279 102.954 43.2416C103.152 43.0553 103.412 42.9622 103.736 42.9622C103.898 42.9622 104.051 42.9834 104.195 43.0258C104.342 43.0659 104.479 43.1272 104.609 43.2097L104.404 43.6483C104.305 43.5799 104.199 43.5257 104.086 43.4856C103.975 43.4455 103.86 43.4255 103.743 43.4255C103.57 43.4255 103.434 43.4738 103.332 43.5705C103.233 43.6672 103.184 43.7969 103.184 43.9596C103.184 44.0681 103.204 44.1612 103.244 44.239C103.284 44.3168 103.35 44.3923 103.442 44.4654C103.534 44.5385 103.655 44.621 103.806 44.713C103.967 44.8144 104.107 44.9181 104.227 45.0242C104.35 45.128 104.445 45.2482 104.514 45.385C104.582 45.5218 104.616 45.6903 104.616 45.8908ZM105.281 46.538C105.281 46.3942 105.312 46.2846 105.373 46.2091C105.437 46.1337 105.529 46.0959 105.649 46.0959C105.765 46.0959 105.855 46.1313 105.921 46.202C105.987 46.2704 106.02 46.3824 106.02 46.538C106.02 46.689 105.986 46.7998 105.918 46.8705C105.849 46.9413 105.76 46.9766 105.649 46.9766C105.533 46.9766 105.443 46.9401 105.377 46.867C105.313 46.7915 105.281 46.6819 105.281 46.538Z" fill="white"/>
</g>
<defs>
<clipPath id="clip0_71_3">
<rect width="166" height="54" fill="white"/>
</clipPath>
</defs>
</svg>
