<svg width="66" height="58" viewBox="0 0 66 58" fill="none" xmlns="http://www.w3.org/2000/svg">
<mask id="mask0_18_25" style="mask-type:alpha" maskUnits="userSpaceOnUse" x="0" y="0" width="66" height="58">
<rect width="66" height="58" fill="#D9D9D9"/>
</mask>
<g mask="url(#mask0_18_25)">
<path d="M13.75 50.75C12.2375 50.75 10.9427 50.2767 9.86563 49.3302C8.78854 48.3837 8.25 47.2458 8.25 45.9167V12.0833C8.25 10.7542 8.78854 9.61631 9.86563 8.66978C10.9427 7.72325 12.2375 7.24999 13.75 7.24999H25.3C25.8958 5.79999 26.8927 4.63193 28.2906 3.74582C29.6885 2.85971 31.2583 2.41666 33 2.41666C34.7417 2.41666 36.3115 2.85971 37.7094 3.74582C39.1073 4.63193 40.1042 5.79999 40.7 7.24999H52.25C53.7625 7.24999 55.0573 7.72325 56.1344 8.66978C57.2115 9.61631 57.75 10.7542 57.75 12.0833V45.9167C57.75 47.2458 57.2115 48.3837 56.1344 49.3302C55.0573 50.2767 53.7625 50.75 52.25 50.75H13.75ZM13.75 45.9167H52.25V12.0833H13.75V45.9167ZM19.25 41.0833H38.5V36.25H19.25V41.0833ZM19.25 31.4167H46.75V26.5833H19.25V31.4167ZM19.25 21.75H46.75V16.9167H19.25V21.75ZM33 10.2708C33.5958 10.2708 34.0885 10.0996 34.4781 9.75728C34.8677 9.41492 35.0625 8.98193 35.0625 8.45832C35.0625 7.93471 34.8677 7.50173 34.4781 7.15936C34.0885 6.817 33.5958 6.64582 33 6.64582C32.4042 6.64582 31.9115 6.817 31.5219 7.15936C31.1323 7.50173 30.9375 7.93471 30.9375 8.45832C30.9375 8.98193 31.1323 9.41492 31.5219 9.75728C31.9115 10.0996 32.4042 10.2708 33 10.2708Z" fill="#00738C"/>
</g>
</svg>
