<svg width="65" height="58" viewBox="0 0 65 58" fill="none" xmlns="http://www.w3.org/2000/svg">
<mask id="mask0_18_73" style="mask-type:alpha" maskUnits="userSpaceOnUse" x="0" y="0" width="65" height="58">
<rect width="65" height="58" fill="#D9D9D9"/>
</mask>
<g mask="url(#mask0_18_73)">
<path d="M5.41669 53.1667L10.8334 29H54.1667L59.5834 53.1667H5.41669ZM8.12502 9.66668V4.83334H16.25V9.66668H8.12502ZM12.0521 48.3333H29.7917V43.5H13.1354L12.0521 48.3333ZM16.5886 22.5354L12.7292 19.1521L18.4844 14.0167L22.3438 17.4L16.5886 22.5354ZM14.2188 38.6667H29.7917V33.8333H15.3021L14.2188 38.6667ZM32.5 16.9167C28.7535 16.9167 25.5599 15.7386 22.9193 13.3823C20.2787 11.0261 18.9584 8.1764 18.9584 4.83334H24.375C24.375 6.84723 25.165 8.55904 26.7448 9.96876C28.3247 11.3785 30.2431 12.0833 32.5 12.0833C34.757 12.0833 36.6754 11.3785 38.2552 9.96876C39.8351 8.55904 40.625 6.84723 40.625 4.83334H46.0417C46.0417 8.1764 44.7214 11.0261 42.0808 13.3823C39.4401 15.7386 36.2465 16.9167 32.5 16.9167ZM29.7917 26.5833V19.3333H35.2084V26.5833H29.7917ZM35.2084 48.3333H52.9479L51.8646 43.5H35.2084V48.3333ZM35.2084 38.6667H50.7813L49.6979 33.8333H35.2084V38.6667ZM48.4115 22.5354L42.724 17.4L46.5156 14.0167L52.2709 19.0917L48.4115 22.5354ZM48.75 9.66668V4.83334H56.875V9.66668H48.75Z" fill="#00738C"/>
</g>
</svg>
