<svg width="295" height="271" viewBox="0 0 295 271" fill="none" xmlns="http://www.w3.org/2000/svg">
<path d="M119.784 6.37576C182.542 6.37576 233.476 57.3098 233.476 120.068C233.476 182.826 182.542 233.76 119.784 233.76C57.0264 233.76 6.09244 182.826 6.09244 120.068C6.09244 57.3098 57.0264 6.37576 119.784 6.37576Z" fill="#FCC31D"/>
<path d="M124.19 25.8746C179.085 25.8746 223.638 70.427 223.638 125.322C223.638 180.217 179.085 224.769 124.19 224.769C69.2956 224.769 24.7432 180.217 24.7432 125.322C24.7432 70.427 69.2956 25.8746 124.19 25.8746Z" fill="#FFF312"/>
<path d="M159.407 65.2963L289.464 120.502L230.721 258.892L100.664 203.686L159.407 65.2963Z" fill="#828383"/>
<path d="M155.219 66.4923L284.811 121.501L226.068 259.891L96.4756 204.882L155.219 66.4923Z" fill="#BCC2C6"/>
<path d="M202.046 99.6912C206.808 101.712 209.029 107.211 207.008 111.973L199.425 129.837C197.404 134.599 191.905 136.82 187.143 134.799L153.05 120.327C148.288 118.306 146.066 112.807 148.088 108.045L155.67 90.1813C157.692 85.4196 163.19 83.198 167.952 85.2192L202.046 99.6912Z" fill="#0C4ABF"/>
<path d="M184.03 140.248C188.792 142.269 191.014 147.768 188.992 152.53L181.409 170.394C179.388 175.156 173.889 177.377 169.128 175.356L135.034 160.884C130.272 158.863 128.051 153.364 130.072 148.602L137.655 130.738C139.676 125.976 145.175 123.755 149.936 125.776L184.03 140.248Z" fill="#0C75BF"/>
<path d="M243.286 164.759C248.048 166.78 250.269 172.279 248.248 177.041L240.665 194.905C238.644 199.666 233.145 201.888 228.383 199.867L194.29 185.395C189.528 183.374 187.306 177.875 189.328 173.113L196.91 155.249C198.932 150.487 204.43 148.266 209.192 150.287L243.286 164.759Z" fill="#0C4ABF"/>
<path d="M261.335 123.228C266.097 125.249 268.318 130.748 266.297 135.51L258.714 153.374C256.693 158.135 251.194 160.357 246.433 158.336L212.339 143.864C207.577 141.843 205.355 136.344 207.377 131.582L214.96 113.718C216.981 108.956 222.48 106.735 227.241 108.756L261.335 123.228Z" fill="#0C75BF"/>
<path d="M165.806 180.127C170.568 182.149 172.789 187.647 170.768 192.409L163.185 210.273C161.164 215.035 155.665 217.257 150.903 215.235L116.81 200.763C112.048 198.742 109.826 193.243 111.847 188.482L119.43 170.618C121.452 165.856 126.95 163.634 131.712 165.655L165.806 180.127Z" fill="#0C4ABF"/>
<path d="M224.854 204.17C229.616 206.191 231.838 211.69 229.817 216.452L222.234 234.316C220.212 239.078 214.714 241.299 209.952 239.278L175.858 224.806C171.096 222.785 168.875 217.286 170.896 212.524L178.479 194.66C180.5 189.898 185.999 187.677 190.761 189.698L224.854 204.17Z" fill="#0C75BF"/>
</svg>
