<svg width="525" height="305" viewBox="0 0 525 305" fill="none" xmlns="http://www.w3.org/2000/svg">
<g clip-path="url(#clip0_1_2)">
<path d="M119.784 6.37576C182.542 6.37576 233.476 57.3098 233.476 120.068C233.476 182.826 182.542 233.76 119.784 233.76C57.0264 233.76 6.09244 182.826 6.09244 120.068C6.09244 57.3098 57.0264 6.37576 119.784 6.37576Z" fill="#FCC31D"/>
<path d="M124.19 25.8746C179.085 25.8746 223.638 70.427 223.638 125.322C223.638 180.217 179.085 224.769 124.19 224.769C69.2956 224.769 24.7432 180.217 24.7432 125.322C24.7432 70.427 69.2956 25.8746 124.19 25.8746Z" fill="#FFF312"/>
<path d="M159.407 65.2963L289.464 120.502L230.721 258.892L100.664 203.686L159.407 65.2963Z" fill="#828383"/>
<path d="M155.219 66.4923L284.811 121.501L226.068 259.891L96.4756 204.882L155.219 66.4923Z" fill="#BCC2C6"/>
<path d="M202.046 99.6912C206.808 101.712 209.029 107.211 207.008 111.973L199.425 129.837C197.404 134.599 191.905 136.82 187.143 134.799L153.05 120.327C148.288 118.306 146.066 112.807 148.088 108.045L155.67 90.1813C157.692 85.4196 163.19 83.198 167.952 85.2192L202.046 99.6912Z" fill="#0C4ABF"/>
<path d="M184.03 140.248C188.792 142.269 191.014 147.768 188.992 152.53L181.409 170.394C179.388 175.156 173.889 177.377 169.128 175.356L135.034 160.884C130.272 158.863 128.051 153.364 130.072 148.602L137.655 130.738C139.676 125.976 145.175 123.755 149.936 125.776L184.03 140.248Z" fill="#0C75BF"/>
<path d="M243.286 164.759C248.048 166.78 250.269 172.279 248.248 177.041L240.665 194.905C238.644 199.666 233.145 201.888 228.383 199.867L194.29 185.395C189.528 183.374 187.306 177.875 189.328 173.113L196.91 155.249C198.932 150.487 204.43 148.266 209.192 150.287L243.286 164.759Z" fill="#0C4ABF"/>
<path d="M261.335 123.228C266.097 125.249 268.318 130.748 266.297 135.51L258.714 153.374C256.693 158.135 251.194 160.357 246.433 158.336L212.339 143.864C207.577 141.843 205.355 136.344 207.377 131.582L214.96 113.718C216.981 108.956 222.48 106.735 227.241 108.756L261.335 123.228Z" fill="#0C75BF"/>
<path d="M165.806 180.127C170.568 182.149 172.789 187.647 170.768 192.409L163.185 210.273C161.164 215.035 155.665 217.257 150.903 215.235L116.81 200.763C112.048 198.742 109.826 193.243 111.847 188.482L119.43 170.618C121.452 165.856 126.95 163.634 131.712 165.655L165.806 180.127Z" fill="#0C4ABF"/>
<path d="M224.854 204.17C229.616 206.191 231.838 211.69 229.817 216.452L222.234 234.316C220.212 239.078 214.714 241.299 209.952 239.278L175.858 224.806C171.096 222.785 168.875 217.286 170.896 212.524L178.479 194.66C180.5 189.898 185.999 187.677 190.761 189.698L224.854 204.17Z" fill="#0C75BF"/>
<path d="M134.816 299.47H89.8612V242.77H134.816V254.11H104.441V265.045H128.336V276.385H104.441V288.13H134.816V299.47ZM178.537 298.66C168.439 299.74 159.529 300.28 151.807 300.28C148.135 300.28 145.192 299.173 142.978 296.959C140.764 294.745 139.657 291.802 139.657 288.13V269.5C139.657 265.45 140.791 262.291 143.059 260.023C145.381 257.701 148.567 256.54 152.617 256.54H178.537V267.475H157.072C154.912 267.475 153.832 268.555 153.832 270.715V286.51C153.832 287.32 154.102 287.995 154.642 288.535C155.182 289.075 155.857 289.345 156.667 289.345C161.527 289.345 168.817 288.94 178.537 288.13V298.66ZM228.741 287.32C228.741 291.37 227.58 294.556 225.258 296.878C222.99 299.146 219.831 300.28 215.781 300.28H197.151C193.101 300.28 189.915 299.146 187.593 296.878C185.325 294.556 184.191 291.37 184.191 287.32V268.69C184.191 264.64 185.325 261.481 187.593 259.213C189.915 256.891 193.101 255.73 197.151 255.73H215.781C219.831 255.73 222.99 256.891 225.258 259.213C227.58 261.481 228.741 264.64 228.741 268.69V287.32ZM214.566 269.905C214.566 267.745 213.486 266.665 211.326 266.665H201.606C199.446 266.665 198.366 267.745 198.366 269.905V286.105C198.366 288.265 199.446 289.345 201.606 289.345H211.326C213.486 289.345 214.566 288.265 214.566 286.105V269.905ZM235.131 287.725C249.927 288.535 259.944 288.94 265.182 288.94C266.424 288.94 267.396 288.589 268.098 287.887C268.854 287.131 269.232 286.132 269.232 284.89V277.6H250.602C244.932 277.6 240.801 276.331 238.209 273.793C235.671 271.201 234.402 267.07 234.402 261.4V258.97C234.402 253.3 235.671 249.196 238.209 246.658C240.801 244.066 244.932 242.77 250.602 242.77H279.033V254.11H253.842C250.602 254.11 248.982 255.73 248.982 258.97V260.59C248.982 263.83 250.602 265.45 253.842 265.45H268.422C273.714 265.45 277.602 266.692 280.086 269.176C282.57 271.66 283.812 275.548 283.812 280.84V284.89C283.812 290.182 282.57 294.07 280.086 296.554C277.602 299.038 273.714 300.28 268.422 300.28C265.668 300.28 262.752 300.226 259.674 300.118L252.222 299.794C246.714 299.524 241.017 299.146 235.131 298.66V287.725ZM334.026 287.32C334.026 291.37 332.865 294.556 330.543 296.878C328.275 299.146 325.116 300.28 321.066 300.28H302.436C298.386 300.28 295.2 299.146 292.878 296.878C290.61 294.556 289.476 291.37 289.476 287.32V268.69C289.476 264.64 290.61 261.481 292.878 259.213C295.2 256.891 298.386 255.73 302.436 255.73H321.066C325.116 255.73 328.275 256.891 330.543 259.213C332.865 261.481 334.026 264.64 334.026 268.69V287.32ZM319.851 269.905C319.851 267.745 318.771 266.665 316.611 266.665H306.891C304.731 266.665 303.651 267.745 303.651 269.905V286.105C303.651 288.265 304.731 289.345 306.891 289.345H316.611C318.771 289.345 319.851 288.265 319.851 286.105V269.905ZM363.176 299.47C359.558 300.01 356.102 300.28 352.808 300.28C349.568 300.28 346.841 299.173 344.627 296.959C342.413 294.745 341.306 291.802 341.306 288.13V242.77H355.481V286.105C355.481 286.915 355.751 287.59 356.291 288.13C356.831 288.67 357.506 288.94 358.316 288.94H363.176V299.47ZM385.843 288.94C388.705 288.94 391.945 288.4 395.563 287.32V282.46H383.818C383.008 282.46 382.333 282.73 381.793 283.27C381.253 283.81 380.983 284.485 380.983 285.295V286.105C380.983 286.915 381.253 287.59 381.793 288.13C382.333 288.67 383.008 288.94 383.818 288.94H385.843ZM370.858 257.35C380.74 256.27 389.65 255.73 397.588 255.73C401.26 255.73 404.203 256.837 406.417 259.051C408.631 261.265 409.738 264.208 409.738 267.88V299.47H397.183L396.373 295.42C393.835 297.094 391.216 298.336 388.516 299.146C385.87 299.902 383.629 300.28 381.793 300.28H378.958C375.286 300.28 372.343 299.173 370.129 296.959C367.915 294.745 366.808 291.802 366.808 288.13V284.485C366.808 280.813 367.915 277.87 370.129 275.656C372.343 273.442 375.286 272.335 378.958 272.335H395.563V269.095C395.563 268.285 395.293 267.61 394.753 267.07C394.213 266.53 393.538 266.26 392.728 266.26C389.218 266.26 385.33 266.422 381.064 266.746C376.852 267.07 373.45 267.313 370.858 267.475V257.35ZM441.711 268.285C438.309 268.285 434.799 269.095 431.181 270.715V299.47H417.006V256.54H429.561L430.371 261.805C435.015 257.755 439.875 255.73 444.951 255.73H448.596V268.285H441.711ZM472.083 258.16V299.47H457.908V269.095H451.833V258.16H472.083ZM457.908 241.96H472.083V253.3H457.908V241.96ZM517.873 267.475L495.598 288.535H517.873V299.47H477.778V288.535L500.053 267.475H477.778V256.54H517.873V267.475Z" fill="#484848"/>
</g>
<defs>
<clipPath id="clip0_1_2">
<rect width="525" height="305" fill="white"/>
</clipPath>
</defs>
</svg>
