<svg width="525" height="353" viewBox="0 0 525 353" fill="none" xmlns="http://www.w3.org/2000/svg">
<g clip-path="url(#clip0_1_2)">
<path d="M119.784 6.37576C182.542 6.37576 233.476 57.3097 233.476 120.068C233.476 182.826 182.542 233.76 119.784 233.76C57.0264 233.76 6.09244 182.826 6.09244 120.068C6.09244 57.3097 57.0264 6.37576 119.784 6.37576Z" fill="#FCC31D"/>
<path d="M124.19 25.8746C179.085 25.8746 223.638 70.427 223.638 125.322C223.638 180.217 179.085 224.769 124.19 224.769C69.2956 224.769 24.7432 180.217 24.7432 125.322C24.7432 70.427 69.2956 25.8746 124.19 25.8746Z" fill="#FFF312"/>
<path d="M159.407 65.2963L289.464 120.502L230.721 258.892L100.664 203.686L159.407 65.2963Z" fill="#828383"/>
<path d="M155.219 66.4923L284.811 121.501L226.068 259.891L96.4756 204.882L155.219 66.4923Z" fill="#BCC2C6"/>
<path d="M202.046 99.6912C206.808 101.712 209.029 107.211 207.008 111.973L199.425 129.837C197.404 134.599 191.905 136.82 187.143 134.799L153.05 120.327C148.288 118.306 146.066 112.807 148.088 108.045L155.67 90.1813C157.692 85.4196 163.19 83.198 167.952 85.2192L202.046 99.6912Z" fill="#0C4ABF"/>
<path d="M184.03 140.248C188.792 142.269 191.014 147.768 188.992 152.53L181.409 170.394C179.388 175.156 173.889 177.377 169.128 175.356L135.034 160.884C130.272 158.863 128.051 153.364 130.072 148.602L137.655 130.738C139.676 125.976 145.175 123.755 149.936 125.776L184.03 140.248Z" fill="#0C75BF"/>
<path d="M243.286 164.759C248.048 166.78 250.269 172.279 248.248 177.041L240.665 194.905C238.644 199.666 233.145 201.888 228.383 199.867L194.29 185.395C189.528 183.374 187.306 177.875 189.328 173.113L196.91 155.249C198.932 150.487 204.43 148.266 209.192 150.287L243.286 164.759Z" fill="#0C4ABF"/>
<path d="M261.335 123.228C266.097 125.249 268.318 130.748 266.297 135.51L258.714 153.374C256.693 158.135 251.194 160.357 246.433 158.336L212.339 143.864C207.577 141.843 205.355 136.344 207.377 131.582L214.96 113.718C216.981 108.956 222.48 106.735 227.241 108.756L261.335 123.228Z" fill="#0C75BF"/>
<path d="M165.806 180.127C170.568 182.149 172.789 187.647 170.768 192.409L163.185 210.273C161.164 215.035 155.665 217.257 150.903 215.235L116.81 200.763C112.048 198.742 109.826 193.243 111.847 188.482L119.43 170.618C121.452 165.856 126.95 163.634 131.712 165.655L165.806 180.127Z" fill="#0C4ABF"/>
<path d="M224.854 204.17C229.616 206.191 231.838 211.69 229.817 216.452L222.234 234.316C220.212 239.078 214.714 241.299 209.952 239.278L175.858 224.806C171.096 222.785 168.875 217.286 170.896 212.524L178.479 194.66C180.5 189.898 185.999 187.677 190.761 189.698L224.854 204.17Z" fill="#0C75BF"/>
<path d="M134.816 299.47H89.8612V242.77H134.816V254.11H104.441V265.045H128.336V276.385H104.441V288.13H134.816V299.47ZM178.537 298.66C168.439 299.74 159.529 300.28 151.807 300.28C148.135 300.28 145.192 299.173 142.978 296.959C140.764 294.745 139.657 291.802 139.657 288.13V269.5C139.657 265.45 140.791 262.291 143.059 260.023C145.381 257.701 148.567 256.54 152.617 256.54H178.537V267.475H157.072C154.912 267.475 153.832 268.555 153.832 270.715V286.51C153.832 287.32 154.102 287.995 154.642 288.535C155.182 289.075 155.857 289.345 156.667 289.345C161.527 289.345 168.817 288.94 178.537 288.13V298.66ZM228.741 287.32C228.741 291.37 227.58 294.556 225.258 296.878C222.99 299.146 219.831 300.28 215.781 300.28H197.151C193.101 300.28 189.915 299.146 187.593 296.878C185.325 294.556 184.191 291.37 184.191 287.32V268.69C184.191 264.64 185.325 261.481 187.593 259.213C189.915 256.891 193.101 255.73 197.151 255.73H215.781C219.831 255.73 222.99 256.891 225.258 259.213C227.58 261.481 228.741 264.64 228.741 268.69V287.32ZM214.566 269.905C214.566 267.745 213.486 266.665 211.326 266.665H201.606C199.446 266.665 198.366 267.745 198.366 269.905V286.105C198.366 288.265 199.446 289.345 201.606 289.345H211.326C213.486 289.345 214.566 288.265 214.566 286.105V269.905ZM235.131 287.725C249.927 288.535 259.944 288.94 265.182 288.94C266.424 288.94 267.396 288.589 268.098 287.887C268.854 287.131 269.232 286.132 269.232 284.89V277.6H250.602C244.932 277.6 240.801 276.331 238.209 273.793C235.671 271.201 234.402 267.07 234.402 261.4V258.97C234.402 253.3 235.671 249.196 238.209 246.658C240.801 244.066 244.932 242.77 250.602 242.77H279.033V254.11H253.842C250.602 254.11 248.982 255.73 248.982 258.97V260.59C248.982 263.83 250.602 265.45 253.842 265.45H268.422C273.714 265.45 277.602 266.692 280.086 269.176C282.57 271.66 283.812 275.548 283.812 280.84V284.89C283.812 290.182 282.57 294.07 280.086 296.554C277.602 299.038 273.714 300.28 268.422 300.28C265.668 300.28 262.752 300.226 259.674 300.118L252.222 299.794C246.714 299.524 241.017 299.146 235.131 298.66V287.725ZM334.026 287.32C334.026 291.37 332.865 294.556 330.543 296.878C328.275 299.146 325.116 300.28 321.066 300.28H302.436C298.386 300.28 295.2 299.146 292.878 296.878C290.61 294.556 289.476 291.37 289.476 287.32V268.69C289.476 264.64 290.61 261.481 292.878 259.213C295.2 256.891 298.386 255.73 302.436 255.73H321.066C325.116 255.73 328.275 256.891 330.543 259.213C332.865 261.481 334.026 264.64 334.026 268.69V287.32ZM319.851 269.905C319.851 267.745 318.771 266.665 316.611 266.665H306.891C304.731 266.665 303.651 267.745 303.651 269.905V286.105C303.651 288.265 304.731 289.345 306.891 289.345H316.611C318.771 289.345 319.851 288.265 319.851 286.105V269.905ZM363.176 299.47C359.558 300.01 356.102 300.28 352.808 300.28C349.568 300.28 346.841 299.173 344.627 296.959C342.413 294.745 341.306 291.802 341.306 288.13V242.77H355.481V286.105C355.481 286.915 355.751 287.59 356.291 288.13C356.831 288.67 357.506 288.94 358.316 288.94H363.176V299.47ZM385.843 288.94C388.705 288.94 391.945 288.4 395.563 287.32V282.46H383.818C383.008 282.46 382.333 282.73 381.793 283.27C381.253 283.81 380.983 284.485 380.983 285.295V286.105C380.983 286.915 381.253 287.59 381.793 288.13C382.333 288.67 383.008 288.94 383.818 288.94H385.843ZM370.858 257.35C380.74 256.27 389.65 255.73 397.588 255.73C401.26 255.73 404.203 256.837 406.417 259.051C408.631 261.265 409.738 264.208 409.738 267.88V299.47H397.183L396.373 295.42C393.835 297.094 391.216 298.336 388.516 299.146C385.87 299.902 383.629 300.28 381.793 300.28H378.958C375.286 300.28 372.343 299.173 370.129 296.959C367.915 294.745 366.808 291.802 366.808 288.13V284.485C366.808 280.813 367.915 277.87 370.129 275.656C372.343 273.442 375.286 272.335 378.958 272.335H395.563V269.095C395.563 268.285 395.293 267.61 394.753 267.07C394.213 266.53 393.538 266.26 392.728 266.26C389.218 266.26 385.33 266.422 381.064 266.746C376.852 267.07 373.45 267.313 370.858 267.475V257.35ZM441.711 268.285C438.309 268.285 434.799 269.095 431.181 270.715V299.47H417.006V256.54H429.561L430.371 261.805C435.015 257.755 439.875 255.73 444.951 255.73H448.596V268.285H441.711ZM472.083 258.16V299.47H457.908V269.095H451.833V258.16H472.083ZM457.908 241.96H472.083V253.3H457.908V241.96ZM517.873 267.475L495.598 288.535H517.873V299.47H477.778V288.535L500.053 267.475H477.778V256.54H517.873V267.475Z" fill="#484848"/>
<path d="M91.7366 347.175H86.4021V333.611H91.7366V334.928H87.8772V339.428H91.5046V340.755H87.8772V345.829H91.7366V347.175ZM97.4978 336.802C98.3018 336.802 98.911 337.084 99.3254 337.647C99.7398 338.21 99.947 339.072 99.947 340.235V347.175H98.5183V340.523C98.5183 339.7 98.4101 339.085 98.1936 338.676C97.9833 338.268 97.6493 338.064 97.1916 338.064C96.5237 338.064 96.0351 338.361 95.7258 338.955C95.4166 339.549 95.2619 340.501 95.2619 341.812V347.175H93.8332V336.988H94.9743L95.1321 338.463H95.2248C95.3671 338.123 95.5495 337.829 95.7722 337.582C95.9949 337.334 96.2515 337.143 96.5422 337.007C96.8329 336.87 97.1514 336.802 97.4978 336.802ZM105.207 336.821C105.9 336.821 106.469 337.022 106.914 337.424C107.366 337.826 107.7 338.367 107.916 339.048C108.139 339.728 108.25 340.486 108.25 341.321V342.332H103.398C103.411 343.6 103.605 344.552 103.983 345.189C104.366 345.826 104.941 346.145 105.708 346.145C106.073 346.145 106.432 346.089 106.784 345.978C107.137 345.866 107.502 345.687 107.879 345.44V346.72C107.527 346.936 107.159 347.097 106.775 347.202C106.392 347.308 105.983 347.36 105.551 347.36C104.703 347.36 104.017 347.134 103.491 346.683C102.965 346.225 102.582 345.604 102.341 344.818C102.106 344.026 101.988 343.133 101.988 342.137C101.988 340.999 102.109 340.034 102.35 339.242C102.591 338.451 102.95 337.851 103.426 337.443C103.908 337.028 104.502 336.821 105.207 336.821ZM105.207 337.99C104.669 337.99 104.249 338.253 103.946 338.779C103.642 339.298 103.466 340.102 103.417 341.191H106.914C106.914 340.615 106.852 340.087 106.729 339.604C106.611 339.116 106.426 338.726 106.172 338.435C105.925 338.138 105.603 337.99 105.207 337.99ZM113.677 336.812C113.82 336.812 113.962 336.824 114.104 336.849C114.246 336.867 114.395 336.901 114.55 336.951L114.327 338.417C114.216 338.367 114.098 338.333 113.974 338.315C113.851 338.296 113.718 338.287 113.575 338.287C113.297 338.287 113.04 338.38 112.805 338.565C112.577 338.745 112.379 338.998 112.212 339.326C112.045 339.654 111.915 340.034 111.822 340.467C111.735 340.9 111.695 341.367 111.701 341.868V347.175H110.273V336.988H111.386L111.581 338.797H111.674C111.816 338.407 111.983 338.064 112.175 337.767C112.366 337.47 112.586 337.238 112.833 337.072C113.087 336.898 113.368 336.812 113.677 336.812ZM117.982 351.739C117.011 351.739 116.247 351.492 115.691 350.997C115.134 350.502 114.856 349.809 114.856 348.919C114.856 348.22 115.023 347.648 115.357 347.202C115.691 346.757 116.121 346.46 116.646 346.312C116.386 346.188 116.173 346.002 116.006 345.755C115.845 345.508 115.765 345.214 115.765 344.874C115.765 344.527 115.845 344.212 116.006 343.927C116.173 343.643 116.405 343.371 116.702 343.111C116.306 342.876 115.994 342.499 115.765 341.979C115.536 341.46 115.422 340.863 115.422 340.189C115.422 339.496 115.533 338.899 115.756 338.398C115.984 337.891 116.312 337.498 116.739 337.22C117.166 336.942 117.676 336.802 118.27 336.802C118.455 336.802 118.619 336.812 118.761 336.83C118.904 336.849 119.031 336.874 119.142 336.905C119.253 336.935 119.352 336.973 119.439 337.016H121.962V337.934L120.598 338.101C120.772 338.38 120.898 338.698 120.979 339.057C121.059 339.409 121.099 339.768 121.099 340.133C121.099 341.178 120.852 342.001 120.357 342.601C119.862 343.195 119.163 343.491 118.26 343.491C117.982 343.491 117.76 343.464 117.593 343.408C117.426 343.563 117.277 343.739 117.147 343.937C117.024 344.135 116.962 344.379 116.962 344.67C116.962 344.849 117.002 345.007 117.082 345.143C117.169 345.279 117.293 345.384 117.453 345.458C117.614 345.532 117.812 345.57 118.047 345.57H119.513C120.274 345.57 120.858 345.789 121.266 346.228C121.681 346.667 121.888 347.335 121.888 348.232C121.888 349.345 121.551 350.208 120.877 350.821C120.209 351.433 119.244 351.739 117.982 351.739ZM118.093 350.607C118.632 350.607 119.08 350.524 119.439 350.357C119.804 350.196 120.076 349.948 120.255 349.614C120.441 349.28 120.533 348.866 120.533 348.371C120.533 347.969 120.468 347.66 120.339 347.444C120.215 347.227 120.036 347.079 119.801 346.998C119.565 346.918 119.284 346.878 118.956 346.878H117.741C117.456 346.878 117.197 346.943 116.962 347.072C116.733 347.196 116.55 347.397 116.414 347.676C116.278 347.954 116.21 348.325 116.21 348.789C116.21 349.389 116.377 349.84 116.711 350.143C117.051 350.453 117.512 350.607 118.093 350.607ZM118.27 342.434C118.715 342.434 119.058 342.242 119.3 341.859C119.547 341.475 119.671 340.912 119.671 340.17C119.671 339.391 119.544 338.809 119.29 338.426C119.043 338.043 118.697 337.851 118.251 337.851C117.818 337.851 117.478 338.058 117.231 338.472C116.983 338.881 116.86 339.456 116.86 340.198C116.86 340.909 116.977 341.46 117.212 341.849C117.447 342.239 117.8 342.434 118.27 342.434ZM124.736 336.988V347.175H123.317V336.988H124.736ZM124.05 333.166C124.34 333.166 124.551 333.259 124.68 333.444C124.816 333.63 124.885 333.886 124.885 334.214C124.885 334.536 124.813 334.789 124.671 334.975C124.529 335.16 124.322 335.253 124.05 335.253C123.784 335.253 123.573 335.16 123.419 334.975C123.264 334.789 123.187 334.536 123.187 334.214C123.187 333.874 123.261 333.614 123.409 333.435C123.558 333.255 123.771 333.166 124.05 333.166ZM129.959 336.802C130.899 336.802 131.57 337.102 131.972 337.702C132.374 338.302 132.575 339.171 132.575 340.309V347.175H131.49L131.277 345.727H131.239C131.079 346.074 130.887 346.37 130.664 346.618C130.442 346.859 130.188 347.045 129.904 347.175C129.619 347.298 129.291 347.36 128.92 347.36C128.394 347.36 127.965 347.221 127.631 346.943C127.297 346.664 127.049 346.299 126.888 345.848C126.728 345.39 126.647 344.898 126.647 344.373C126.647 343.365 126.938 342.582 127.519 342.026C128.101 341.469 128.926 341.166 129.996 341.116L131.156 341.042V340.346C131.156 339.53 131.045 338.933 130.822 338.556C130.599 338.179 130.241 337.99 129.746 337.99C129.461 337.99 129.161 338.039 128.846 338.138C128.537 338.237 128.2 338.395 127.835 338.612L127.38 337.535C127.764 337.288 128.172 337.106 128.605 336.988C129.044 336.864 129.495 336.802 129.959 336.802ZM131.175 342.091L130.228 342.155C129.511 342.199 128.976 342.403 128.623 342.768C128.277 343.127 128.104 343.649 128.104 344.336C128.104 344.973 128.218 345.443 128.447 345.746C128.676 346.049 128.991 346.2 129.393 346.2C129.956 346.2 130.392 345.928 130.701 345.384C131.017 344.84 131.175 344.088 131.175 343.13V342.091ZM144.395 343.473C144.395 344.24 144.246 344.917 143.949 345.505C143.659 346.086 143.247 346.541 142.716 346.868C142.19 347.196 141.568 347.36 140.851 347.36C140.498 347.36 140.158 347.338 139.83 347.295C139.503 347.258 139.19 347.196 138.893 347.11C138.603 347.023 138.324 346.915 138.058 346.785V345.254C138.479 345.489 138.933 345.669 139.422 345.792C139.917 345.916 140.375 345.978 140.795 345.978C141.247 345.978 141.627 345.873 141.936 345.662C142.246 345.446 142.481 345.158 142.641 344.8C142.808 344.441 142.892 344.045 142.892 343.612C142.892 343.154 142.824 342.771 142.688 342.462C142.552 342.146 142.329 341.862 142.02 341.608C141.711 341.355 141.293 341.092 140.767 340.82C140.371 340.603 140.013 340.38 139.691 340.152C139.37 339.923 139.094 339.666 138.865 339.382C138.637 339.091 138.46 338.751 138.337 338.361C138.213 337.971 138.151 337.508 138.151 336.969C138.139 336.258 138.278 335.637 138.569 335.105C138.865 334.567 139.274 334.149 139.793 333.852C140.319 333.555 140.919 333.41 141.593 333.416C142.106 333.416 142.595 333.481 143.059 333.611C143.529 333.735 143.934 333.886 144.274 334.066L143.792 335.42C143.414 335.216 143.04 335.065 142.669 334.966C142.304 334.86 141.955 334.808 141.621 334.808C141.206 334.808 140.851 334.898 140.554 335.077C140.263 335.256 140.038 335.504 139.877 335.819C139.722 336.128 139.645 336.49 139.645 336.905C139.645 337.381 139.713 337.773 139.849 338.083C139.991 338.392 140.217 338.667 140.526 338.908C140.842 339.15 141.256 339.409 141.769 339.688C142.357 339.997 142.845 340.331 143.235 340.69C143.625 341.042 143.915 341.444 144.107 341.896C144.299 342.347 144.395 342.873 144.395 343.473ZM152.457 336.988V347.175H151.316L151.158 345.727H151.056C150.92 346.061 150.74 346.352 150.518 346.599C150.301 346.841 150.051 347.029 149.766 347.165C149.482 347.295 149.163 347.36 148.811 347.36C148.217 347.36 147.738 347.212 147.373 346.915C147.014 346.618 146.751 346.194 146.584 345.644C146.423 345.093 146.343 344.438 146.343 343.677V336.988H147.772V343.408C147.772 344.323 147.877 344.997 148.087 345.43C148.304 345.863 148.631 346.08 149.071 346.08C149.547 346.08 149.927 345.95 150.212 345.69C150.496 345.424 150.703 345.025 150.833 344.493C150.963 343.955 151.028 343.275 151.028 342.452V336.988H152.457ZM159.48 344.484C159.48 345.096 159.368 345.619 159.146 346.052C158.923 346.479 158.598 346.803 158.172 347.026C157.751 347.249 157.238 347.36 156.632 347.36C156.162 347.36 155.732 347.304 155.342 347.193C154.952 347.082 154.621 346.949 154.349 346.794V345.31C154.621 345.532 154.959 345.718 155.361 345.866C155.763 346.009 156.171 346.08 156.585 346.08C157.061 346.08 157.426 345.944 157.68 345.672C157.94 345.399 158.07 345.019 158.07 344.53C158.07 344.24 158.017 343.989 157.912 343.779C157.807 343.563 157.637 343.358 157.402 343.167C157.173 342.969 156.87 342.762 156.492 342.545C156.072 342.285 155.698 342.016 155.37 341.738C155.048 341.46 154.798 341.141 154.618 340.782C154.439 340.418 154.349 339.975 154.349 339.456C154.349 338.664 154.606 338.024 155.119 337.535C155.639 337.047 156.322 336.802 157.17 336.802C157.596 336.802 157.998 336.858 158.376 336.969C158.759 337.075 159.121 337.235 159.461 337.452L158.923 338.602C158.663 338.423 158.385 338.281 158.088 338.176C157.797 338.07 157.497 338.018 157.188 338.018C156.737 338.018 156.378 338.145 156.112 338.398C155.852 338.652 155.722 338.992 155.722 339.419C155.722 339.703 155.775 339.947 155.88 340.152C155.985 340.356 156.158 340.554 156.4 340.745C156.641 340.937 156.959 341.154 157.355 341.395C157.776 341.661 158.144 341.933 158.459 342.211C158.781 342.483 159.031 342.799 159.211 343.157C159.39 343.516 159.48 343.958 159.48 344.484ZM163.729 346.098C163.883 346.098 164.038 346.083 164.193 346.052C164.347 346.015 164.496 345.965 164.638 345.904V347.072C164.446 347.159 164.239 347.227 164.016 347.277C163.794 347.332 163.546 347.36 163.274 347.36C162.835 347.36 162.473 347.261 162.189 347.063C161.91 346.865 161.703 346.572 161.567 346.182C161.437 345.786 161.372 345.291 161.372 344.697V338.185H160.426V337.405L161.437 337.025L161.818 334.678H162.801V336.988H164.527V338.185H162.801V344.53C162.801 345.056 162.863 345.449 162.987 345.709C163.116 345.968 163.364 346.098 163.729 346.098ZM168.961 336.821C169.654 336.821 170.223 337.022 170.668 337.424C171.12 337.826 171.454 338.367 171.67 339.048C171.893 339.728 172.004 340.486 172.004 341.321V342.332H167.152C167.164 343.6 167.359 344.552 167.737 345.189C168.12 345.826 168.695 346.145 169.462 346.145C169.827 346.145 170.186 346.089 170.538 345.978C170.891 345.866 171.256 345.687 171.633 345.44V346.72C171.281 346.936 170.913 347.097 170.529 347.202C170.146 347.308 169.737 347.36 169.304 347.36C168.457 347.36 167.771 347.134 167.245 346.683C166.719 346.225 166.336 345.604 166.094 344.818C165.859 344.026 165.742 343.133 165.742 342.137C165.742 340.999 165.863 340.034 166.104 339.242C166.345 338.451 166.704 337.851 167.18 337.443C167.662 337.028 168.256 336.821 168.961 336.821ZM168.961 337.99C168.423 337.99 168.003 338.253 167.699 338.779C167.396 339.298 167.22 340.102 167.171 341.191H170.668C170.668 340.615 170.606 340.087 170.483 339.604C170.365 339.116 170.18 338.726 169.926 338.435C169.679 338.138 169.357 337.99 168.961 337.99ZM177.691 336.802C178.495 336.802 179.104 337.084 179.519 337.647C179.933 338.21 180.14 339.072 180.14 340.235V347.175H178.712V340.523C178.712 339.7 178.603 339.085 178.387 338.676C178.177 338.268 177.843 338.064 177.385 338.064C176.717 338.064 176.228 338.361 175.919 338.955C175.61 339.549 175.455 340.501 175.455 341.812V347.175H174.027V336.988H175.168L175.325 338.463H175.418C175.56 338.123 175.743 337.829 175.966 337.582C176.188 337.334 176.445 337.143 176.736 337.007C177.026 336.87 177.345 336.802 177.691 336.802ZM184.992 346.098C185.147 346.098 185.302 346.083 185.456 346.052C185.611 346.015 185.759 345.965 185.902 345.904V347.072C185.71 347.159 185.503 347.227 185.28 347.277C185.057 347.332 184.81 347.36 184.538 347.36C184.099 347.36 183.737 347.261 183.452 347.063C183.174 346.865 182.967 346.572 182.831 346.182C182.701 345.786 182.636 345.291 182.636 344.697V338.185H181.69V337.405L182.701 337.025L183.081 334.678H184.065V336.988H185.79V338.185H184.065V344.53C184.065 345.056 184.127 345.449 184.25 345.709C184.38 345.968 184.628 346.098 184.992 346.098ZM190.151 336.802C191.091 336.802 191.762 337.102 192.164 337.702C192.566 338.302 192.767 339.171 192.767 340.309V347.175H191.681L191.468 345.727H191.431C191.27 346.074 191.078 346.37 190.856 346.618C190.633 346.859 190.379 347.045 190.095 347.175C189.81 347.298 189.483 347.36 189.112 347.36C188.586 347.36 188.156 347.221 187.822 346.943C187.488 346.664 187.241 346.299 187.08 345.848C186.919 345.39 186.839 344.898 186.839 344.373C186.839 343.365 187.129 342.582 187.711 342.026C188.292 341.469 189.118 341.166 190.188 341.116L191.347 341.042V340.346C191.347 339.53 191.236 338.933 191.013 338.556C190.791 338.179 190.432 337.99 189.937 337.99C189.653 337.99 189.353 338.039 189.037 338.138C188.728 338.237 188.391 338.395 188.026 338.612L187.572 337.535C187.955 337.288 188.363 337.106 188.796 336.988C189.235 336.864 189.687 336.802 190.151 336.802ZM191.366 342.091L190.42 342.155C189.702 342.199 189.167 342.403 188.815 342.768C188.468 343.127 188.295 343.649 188.295 344.336C188.295 344.973 188.41 345.443 188.638 345.746C188.867 346.049 189.183 346.2 189.585 346.2C190.148 346.2 190.584 345.928 190.893 345.384C191.208 344.84 191.366 344.088 191.366 343.13V342.091ZM196.617 347.175L194.066 336.988H195.531L196.932 343.176C197.019 343.547 197.096 343.927 197.164 344.317C197.239 344.707 197.307 345.112 197.368 345.532H197.443C197.474 345.291 197.52 345.001 197.582 344.66C197.644 344.32 197.724 343.943 197.823 343.529L199.326 336.988H200.792L198.203 347.175H196.617ZM204.92 336.821C205.613 336.821 206.182 337.022 206.627 337.424C207.079 337.826 207.413 338.367 207.629 339.048C207.852 339.728 207.963 340.486 207.963 341.321V342.332H203.111C203.123 343.6 203.318 344.552 203.696 345.189C204.079 345.826 204.654 346.145 205.421 346.145C205.786 346.145 206.145 346.089 206.497 345.978C206.85 345.866 207.215 345.687 207.592 345.44V346.72C207.239 346.936 206.871 347.097 206.488 347.202C206.105 347.308 205.696 347.36 205.263 347.36C204.416 347.36 203.73 347.134 203.204 346.683C202.678 346.225 202.295 345.604 202.053 344.818C201.818 344.026 201.701 343.133 201.701 342.137C201.701 340.999 201.822 340.034 202.063 339.242C202.304 338.451 202.663 337.851 203.139 337.443C203.621 337.028 204.215 336.821 204.92 336.821ZM204.92 337.99C204.382 337.99 203.961 338.253 203.658 338.779C203.355 339.298 203.179 340.102 203.13 341.191H206.627C206.627 340.615 206.565 340.087 206.442 339.604C206.324 339.116 206.139 338.726 205.885 338.435C205.638 338.138 205.316 337.99 204.92 337.99ZM211.414 347.175H209.986V332.739H211.414V347.175ZM220.209 336.821C220.902 336.821 221.471 337.022 221.916 337.424C222.368 337.826 222.702 338.367 222.918 339.048C223.141 339.728 223.252 340.486 223.252 341.321V342.332H218.4C218.413 343.6 218.607 344.552 218.985 345.189C219.368 345.826 219.943 346.145 220.71 346.145C221.075 346.145 221.434 346.089 221.786 345.978C222.139 345.866 222.504 345.687 222.881 345.44V346.72C222.529 346.936 222.161 347.097 221.777 347.202C221.394 347.308 220.985 347.36 220.552 347.36C219.705 347.36 219.019 347.134 218.493 346.683C217.967 346.225 217.584 345.604 217.343 344.818C217.107 344.026 216.99 343.133 216.99 342.137C216.99 340.999 217.111 340.034 217.352 339.242C217.593 338.451 217.952 337.851 218.428 337.443C218.91 337.028 219.504 336.821 220.209 336.821ZM220.209 337.99C219.671 337.99 219.251 338.253 218.947 338.779C218.644 339.298 218.468 340.102 218.419 341.191H221.916C221.916 340.615 221.854 340.087 221.731 339.604C221.613 339.116 221.428 338.726 221.174 338.435C220.927 338.138 220.605 337.99 220.209 337.99ZM234.394 347.175L233.374 342.814H230.155L229.134 347.175H227.557L230.832 333.611H232.622L235.962 347.175H234.394ZM233.095 341.45L232.056 336.849C232.013 336.62 231.97 336.397 231.926 336.181C231.889 335.958 231.852 335.745 231.815 335.541C231.784 335.33 231.753 335.126 231.722 334.928C231.704 335.126 231.679 335.33 231.648 335.541C231.617 335.751 231.58 335.964 231.537 336.181C231.494 336.391 231.447 336.608 231.398 336.83L230.386 341.45H233.095ZM240.146 347.36C239.398 347.36 238.773 347.165 238.272 346.776C237.777 346.386 237.406 345.805 237.159 345.031C236.912 344.258 236.788 343.3 236.788 342.155C236.788 341.036 236.912 340.077 237.159 339.28C237.413 338.482 237.793 337.869 238.3 337.443C238.807 337.016 239.441 336.802 240.202 336.802C240.585 336.802 240.929 336.843 241.232 336.923C241.541 337.003 241.829 337.118 242.094 337.266L241.64 338.445C241.411 338.321 241.182 338.228 240.953 338.166C240.731 338.104 240.511 338.073 240.295 338.073C239.849 338.073 239.475 338.228 239.172 338.537C238.869 338.84 238.637 339.292 238.476 339.892C238.322 340.492 238.244 341.24 238.244 342.137C238.244 343.009 238.319 343.739 238.467 344.326C238.622 344.914 238.85 345.359 239.154 345.662C239.463 345.959 239.846 346.108 240.304 346.108C240.576 346.108 240.851 346.071 241.13 345.996C241.414 345.916 241.699 345.801 241.983 345.653V346.859C241.723 347.02 241.42 347.144 241.074 347.23C240.734 347.317 240.425 347.36 240.146 347.36ZM246.538 336.821C247.231 336.821 247.8 337.022 248.245 337.424C248.697 337.826 249.031 338.367 249.247 339.048C249.47 339.728 249.581 340.486 249.581 341.321V342.332H244.729C244.742 343.6 244.936 344.552 245.314 345.189C245.697 345.826 246.272 346.145 247.039 346.145C247.404 346.145 247.763 346.089 248.115 345.978C248.468 345.866 248.833 345.687 249.21 345.44V346.72C248.858 346.936 248.49 347.097 248.106 347.202C247.723 347.308 247.315 347.36 246.882 347.36C246.034 347.36 245.348 347.134 244.822 346.683C244.296 346.225 243.913 345.604 243.672 344.818C243.437 344.026 243.319 343.133 243.319 342.137C243.319 340.999 243.44 340.034 243.681 339.242C243.922 338.451 244.281 337.851 244.757 337.443C245.239 337.028 245.833 336.821 246.538 336.821ZM246.538 337.99C246 337.99 245.58 338.253 245.277 338.779C244.974 339.298 244.797 340.102 244.748 341.191H248.245C248.245 340.615 248.183 340.087 248.06 339.604C247.942 339.116 247.757 338.726 247.503 338.435C247.256 338.138 246.934 337.99 246.538 337.99ZM256.131 344.484C256.131 345.096 256.02 345.619 255.797 346.052C255.574 346.479 255.25 346.803 254.823 347.026C254.402 347.249 253.889 347.36 253.283 347.36C252.813 347.36 252.383 347.304 251.993 347.193C251.604 347.082 251.273 346.949 251.001 346.794V345.31C251.273 345.532 251.61 345.718 252.012 345.866C252.414 346.009 252.822 346.08 253.237 346.08C253.713 346.08 254.078 345.944 254.331 345.672C254.591 345.399 254.721 345.019 254.721 344.53C254.721 344.24 254.668 343.989 254.563 343.779C254.458 343.563 254.288 343.358 254.053 343.167C253.824 342.969 253.521 342.762 253.144 342.545C252.723 342.285 252.349 342.016 252.021 341.738C251.7 341.46 251.449 341.141 251.27 340.782C251.09 340.418 251.001 339.975 251.001 339.456C251.001 338.664 251.257 338.024 251.771 337.535C252.29 337.047 252.974 336.802 253.821 336.802C254.248 336.802 254.65 336.858 255.027 336.969C255.411 337.075 255.772 337.235 256.113 337.452L255.574 338.602C255.315 338.423 255.036 338.281 254.739 338.176C254.449 338.07 254.149 338.018 253.84 338.018C253.388 338.018 253.029 338.145 252.763 338.398C252.504 338.652 252.374 338.992 252.374 339.419C252.374 339.703 252.426 339.947 252.531 340.152C252.637 340.356 252.81 340.554 253.051 340.745C253.292 340.937 253.611 341.154 254.007 341.395C254.427 341.661 254.795 341.933 255.111 342.211C255.432 342.483 255.683 342.799 255.862 343.157C256.041 343.516 256.131 343.958 256.131 344.484ZM262.514 344.484C262.514 345.096 262.403 345.619 262.18 346.052C261.957 346.479 261.633 346.803 261.206 347.026C260.785 347.249 260.272 347.36 259.666 347.36C259.196 347.36 258.766 347.304 258.376 347.193C257.987 347.082 257.656 346.949 257.384 346.794V345.31C257.656 345.532 257.993 345.718 258.395 345.866C258.797 346.009 259.205 346.08 259.619 346.08C260.096 346.08 260.461 345.944 260.714 345.672C260.974 345.399 261.104 345.019 261.104 344.53C261.104 344.24 261.051 343.989 260.946 343.779C260.841 343.563 260.671 343.358 260.436 343.167C260.207 342.969 259.904 342.762 259.527 342.545C259.106 342.285 258.732 342.016 258.404 341.738C258.082 341.46 257.832 341.141 257.653 340.782C257.473 340.418 257.384 339.975 257.384 339.456C257.384 338.664 257.64 338.024 258.154 337.535C258.673 337.047 259.357 336.802 260.204 336.802C260.631 336.802 261.033 336.858 261.41 336.969C261.793 337.075 262.155 337.235 262.495 337.452L261.957 338.602C261.697 338.423 261.419 338.281 261.122 338.176C260.832 338.07 260.532 338.018 260.222 338.018C259.771 338.018 259.412 338.145 259.146 338.398C258.886 338.652 258.757 338.992 258.757 339.419C258.757 339.703 258.809 339.947 258.914 340.152C259.019 340.356 259.193 340.554 259.434 340.745C259.675 340.937 259.994 341.154 260.389 341.395C260.81 341.661 261.178 341.933 261.493 342.211C261.815 342.483 262.065 342.799 262.245 343.157C262.424 343.516 262.514 343.958 262.514 344.484ZM265.807 336.988V347.175H264.388V336.988H265.807ZM265.121 333.166C265.412 333.166 265.622 333.259 265.752 333.444C265.888 333.63 265.956 333.886 265.956 334.214C265.956 334.536 265.885 334.789 265.742 334.975C265.6 335.16 265.393 335.253 265.121 335.253C264.855 335.253 264.645 335.16 264.49 334.975C264.335 334.789 264.258 334.536 264.258 334.214C264.258 333.874 264.332 333.614 264.481 333.435C264.629 333.255 264.843 333.166 265.121 333.166ZM269.685 347.175L267.134 336.988H268.6L270.001 343.176C270.087 343.547 270.165 343.927 270.233 344.317C270.307 344.707 270.375 345.112 270.437 345.532H270.511C270.542 345.291 270.588 345.001 270.65 344.66C270.712 344.32 270.792 343.943 270.891 343.529L272.394 336.988H273.86L271.272 347.175H269.685ZM277.989 336.821C278.681 336.821 279.25 337.022 279.696 337.424C280.147 337.826 280.481 338.367 280.697 339.048C280.92 339.728 281.031 340.486 281.031 341.321V342.332H276.179C276.192 343.6 276.387 344.552 276.764 345.189C277.147 345.826 277.723 346.145 278.489 346.145C278.854 346.145 279.213 346.089 279.566 345.978C279.918 345.866 280.283 345.687 280.66 345.44V346.72C280.308 346.936 279.94 347.097 279.556 347.202C279.173 347.308 278.765 347.36 278.332 347.36C277.484 347.36 276.798 347.134 276.272 346.683C275.746 346.225 275.363 345.604 275.122 344.818C274.887 344.026 274.769 343.133 274.769 342.137C274.769 340.999 274.89 340.034 275.131 339.242C275.372 338.451 275.731 337.851 276.207 337.443C276.69 337.028 277.283 336.821 277.989 336.821ZM277.989 337.99C277.45 337.99 277.03 338.253 276.727 338.779C276.424 339.298 276.247 340.102 276.198 341.191H279.696C279.696 340.615 279.634 340.087 279.51 339.604C279.392 339.116 279.207 338.726 278.953 338.435C278.706 338.138 278.384 337.99 277.989 337.99ZM284.483 347.175H283.054V332.739H284.483V347.175ZM294.159 336.802C295.136 336.802 295.875 337.242 296.376 338.12C296.883 338.992 297.137 340.306 297.137 342.063C297.137 343.195 297.023 344.156 296.794 344.948C296.571 345.733 296.243 346.333 295.81 346.748C295.377 347.156 294.852 347.36 294.233 347.36C293.887 347.36 293.565 347.295 293.268 347.165C292.971 347.029 292.709 346.841 292.48 346.599C292.251 346.352 292.059 346.064 291.905 345.737H291.84C291.852 345.984 291.864 346.222 291.877 346.451C291.895 346.68 291.905 346.896 291.905 347.1V351.72H290.476V336.988H291.635L291.812 338.482H291.895C292.068 338.104 292.266 337.792 292.489 337.545C292.718 337.297 292.971 337.112 293.25 336.988C293.528 336.864 293.831 336.802 294.159 336.802ZM293.853 338.036C293.42 338.036 293.058 338.172 292.767 338.445C292.483 338.717 292.266 339.128 292.118 339.678C291.976 340.223 291.905 340.909 291.905 341.738V342.23C291.905 343.108 291.976 343.835 292.118 344.41C292.266 344.985 292.486 345.412 292.777 345.69C293.073 345.968 293.438 346.108 293.871 346.108C294.267 346.108 294.598 345.965 294.864 345.681C295.136 345.396 295.34 344.957 295.476 344.363C295.612 343.77 295.68 343.009 295.68 342.081C295.68 340.739 295.538 339.731 295.254 339.057C294.975 338.377 294.508 338.036 293.853 338.036ZM301.906 336.802C302.846 336.802 303.517 337.102 303.919 337.702C304.321 338.302 304.522 339.171 304.522 340.309V347.175H303.436L303.223 345.727H303.186C303.025 346.074 302.833 346.37 302.611 346.618C302.388 346.859 302.134 347.045 301.85 347.175C301.565 347.298 301.238 347.36 300.866 347.36C300.341 347.36 299.911 347.221 299.577 346.943C299.243 346.664 298.996 346.299 298.835 345.848C298.674 345.39 298.593 344.898 298.593 344.373C298.593 343.365 298.884 342.582 299.466 342.026C300.047 341.469 300.873 341.166 301.943 341.116L303.102 341.042V340.346C303.102 339.53 302.991 338.933 302.768 338.556C302.546 338.179 302.187 337.99 301.692 337.99C301.408 337.99 301.108 338.039 300.792 338.138C300.483 338.237 300.146 338.395 299.781 338.612L299.326 337.535C299.71 337.288 300.118 337.106 300.551 336.988C300.99 336.864 301.442 336.802 301.906 336.802ZM303.121 342.091L302.175 342.155C301.457 342.199 300.922 342.403 300.57 342.768C300.223 343.127 300.05 343.649 300.05 344.336C300.05 344.973 300.164 345.443 300.393 345.746C300.622 346.049 300.938 346.2 301.34 346.2C301.902 346.2 302.338 345.928 302.648 345.384C302.963 344.84 303.121 344.088 303.121 343.13V342.091ZM310.394 336.812C310.537 336.812 310.679 336.824 310.821 336.849C310.963 336.867 311.112 336.901 311.266 336.951L311.044 338.417C310.932 338.367 310.815 338.333 310.691 338.315C310.567 338.296 310.434 338.287 310.292 338.287C310.014 338.287 309.757 338.38 309.522 338.565C309.293 338.745 309.095 338.998 308.928 339.326C308.761 339.654 308.632 340.034 308.539 340.467C308.452 340.9 308.412 341.367 308.418 341.868V347.175H306.989V336.988H308.103L308.298 338.797H308.39C308.533 338.407 308.7 338.064 308.891 337.767C309.083 337.47 309.303 337.238 309.55 337.072C309.804 336.898 310.085 336.812 310.394 336.812ZM315.413 336.802C316.353 336.802 317.024 337.102 317.426 337.702C317.829 338.302 318.03 339.171 318.03 340.309V347.175H316.944L316.731 345.727H316.694C316.533 346.074 316.341 346.37 316.118 346.618C315.896 346.859 315.642 347.045 315.358 347.175C315.073 347.298 314.745 347.36 314.374 347.36C313.849 347.36 313.419 347.221 313.085 346.943C312.751 346.664 312.503 346.299 312.343 345.848C312.182 345.39 312.101 344.898 312.101 344.373C312.101 343.365 312.392 342.582 312.973 342.026C313.555 341.469 314.38 341.166 315.45 341.116L316.61 341.042V340.346C316.61 339.53 316.499 338.933 316.276 338.556C316.053 338.179 315.695 337.99 315.2 337.99C314.915 337.99 314.615 338.039 314.3 338.138C313.991 338.237 313.654 338.395 313.289 338.612L312.834 337.535C313.218 337.288 313.626 337.106 314.059 336.988C314.498 336.864 314.949 336.802 315.413 336.802ZM316.629 342.091L315.682 342.155C314.965 342.199 314.43 342.403 314.077 342.768C313.731 343.127 313.558 343.649 313.558 344.336C313.558 344.973 313.672 345.443 313.901 345.746C314.13 346.049 314.445 346.2 314.847 346.2C315.41 346.2 315.846 345.928 316.156 345.384C316.471 344.84 316.629 344.088 316.629 343.13V342.091ZM326.416 346.098C326.571 346.098 326.725 346.083 326.88 346.052C327.035 346.015 327.183 345.965 327.325 345.904V347.072C327.134 347.159 326.926 347.227 326.704 347.277C326.481 347.332 326.234 347.36 325.962 347.36C325.523 347.36 325.161 347.261 324.876 347.063C324.598 346.865 324.391 346.572 324.255 346.182C324.125 345.786 324.06 345.291 324.06 344.697V338.185H323.114V337.405L324.125 337.025L324.505 334.678H325.489V336.988H327.214V338.185H325.489V344.53C325.489 345.056 325.55 345.449 325.674 345.709C325.804 345.968 326.051 346.098 326.416 346.098ZM335.165 342.072C335.165 342.876 335.097 343.603 334.961 344.252C334.825 344.902 334.617 345.458 334.339 345.922C334.061 346.386 333.708 346.742 333.281 346.989C332.855 347.236 332.351 347.36 331.769 347.36C331.213 347.36 330.724 347.236 330.303 346.989C329.883 346.742 329.533 346.389 329.255 345.931C328.977 345.467 328.767 344.911 328.624 344.261C328.482 343.606 328.411 342.876 328.411 342.072C328.411 340.946 328.531 339.994 328.773 339.215C329.014 338.429 329.385 337.832 329.886 337.424C330.387 337.01 331.024 336.802 331.797 336.802C332.521 336.802 333.133 337.003 333.634 337.405C334.135 337.801 334.515 338.392 334.775 339.177C335.035 339.957 335.165 340.922 335.165 342.072ZM329.867 342.072C329.867 342.956 329.935 343.699 330.072 344.299C330.208 344.898 330.418 345.35 330.702 345.653C330.993 345.956 331.361 346.108 331.806 346.108C332.246 346.108 332.604 345.959 332.883 345.662C333.167 345.365 333.377 344.92 333.513 344.326C333.649 343.726 333.718 342.975 333.718 342.072C333.718 341.188 333.649 340.448 333.513 339.855C333.377 339.255 333.167 338.806 332.883 338.509C332.604 338.206 332.242 338.055 331.797 338.055C331.117 338.055 330.625 338.392 330.322 339.066C330.019 339.734 329.867 340.736 329.867 342.072ZM339.748 347.36C338.777 347.36 338.038 346.915 337.531 346.024C337.03 345.127 336.779 343.822 336.779 342.109C336.779 340.408 337.033 339.1 337.54 338.185C338.047 337.263 338.767 336.802 339.701 336.802C340.029 336.802 340.338 336.867 340.629 336.997C340.92 337.121 341.18 337.3 341.408 337.535C341.643 337.764 341.841 338.043 342.002 338.37H342.067C342.055 338.086 342.042 337.832 342.03 337.61C342.024 337.381 342.021 337.167 342.021 336.969V332.739H343.44V347.175H342.299L342.104 345.801H342.021C341.848 346.123 341.65 346.401 341.427 346.636C341.211 346.871 340.963 347.051 340.685 347.175C340.413 347.298 340.1 347.36 339.748 347.36ZM340.063 346.145C340.706 346.145 341.192 345.845 341.52 345.245C341.854 344.645 342.021 343.757 342.021 342.582V341.886C342.021 340.594 341.86 339.635 341.538 339.01C341.223 338.386 340.725 338.073 340.045 338.073C339.426 338.073 338.968 338.42 338.672 339.113C338.381 339.799 338.236 340.798 338.236 342.109C338.236 343.433 338.381 344.438 338.672 345.124C338.968 345.805 339.432 346.145 340.063 346.145ZM352.235 342.072C352.235 342.876 352.167 343.603 352.031 344.252C351.895 344.902 351.688 345.458 351.409 345.922C351.131 346.386 350.779 346.742 350.352 346.989C349.925 347.236 349.421 347.36 348.84 347.36C348.283 347.36 347.794 347.236 347.374 346.989C346.953 346.742 346.604 346.389 346.325 345.931C346.047 345.467 345.837 344.911 345.695 344.261C345.552 343.606 345.481 342.876 345.481 342.072C345.481 340.946 345.602 339.994 345.843 339.215C346.084 338.429 346.455 337.832 346.956 337.424C347.457 337.01 348.094 336.802 348.867 336.802C349.591 336.802 350.203 337.003 350.704 337.405C351.205 337.801 351.586 338.392 351.845 339.177C352.105 339.957 352.235 340.922 352.235 342.072ZM346.938 342.072C346.938 342.956 347.006 343.699 347.142 344.299C347.278 344.898 347.488 345.35 347.773 345.653C348.063 345.956 348.431 346.108 348.877 346.108C349.316 346.108 349.675 345.959 349.953 345.662C350.237 345.365 350.448 344.92 350.584 344.326C350.72 343.726 350.788 342.975 350.788 342.072C350.788 341.188 350.72 340.448 350.584 339.855C350.448 339.255 350.237 338.806 349.953 338.509C349.675 338.206 349.313 338.055 348.867 338.055C348.187 338.055 347.695 338.392 347.392 339.066C347.089 339.734 346.938 340.736 346.938 342.072ZM358.813 344.484C358.813 345.096 358.701 345.619 358.479 346.052C358.256 346.479 357.931 346.803 357.505 347.026C357.084 347.249 356.571 347.36 355.965 347.36C355.495 347.36 355.065 347.304 354.675 347.193C354.285 347.082 353.954 346.949 353.682 346.794V345.31C353.954 345.532 354.292 345.718 354.694 345.866C355.096 346.009 355.504 346.08 355.918 346.08C356.394 346.08 356.759 345.944 357.013 345.672C357.273 345.399 357.403 345.019 357.403 344.53C357.403 344.24 357.35 343.989 357.245 343.779C357.14 343.563 356.97 343.358 356.735 343.167C356.506 342.969 356.203 342.762 355.825 342.545C355.405 342.285 355.031 342.016 354.703 341.738C354.381 341.46 354.131 341.141 353.951 340.782C353.772 340.418 353.682 339.975 353.682 339.456C353.682 338.664 353.939 338.024 354.452 337.535C354.972 337.047 355.655 336.802 356.503 336.802C356.929 336.802 357.331 336.858 357.709 336.969C358.092 337.075 358.454 337.235 358.794 337.452L358.256 338.602C357.996 338.423 357.718 338.281 357.421 338.176C357.13 338.07 356.83 338.018 356.521 338.018C356.07 338.018 355.711 338.145 355.445 338.398C355.185 338.652 355.055 338.992 355.055 339.419C355.055 339.703 355.108 339.947 355.213 340.152C355.318 340.356 355.491 340.554 355.733 340.745C355.974 340.937 356.292 341.154 356.688 341.395C357.109 341.661 357.477 341.933 357.792 342.211C358.114 342.483 358.364 342.799 358.544 343.157C358.723 343.516 358.813 343.958 358.813 344.484ZM360.557 346.182C360.557 345.805 360.637 345.517 360.798 345.319C360.965 345.121 361.206 345.022 361.522 345.022C361.825 345.022 362.063 345.115 362.236 345.301C362.409 345.48 362.496 345.774 362.496 346.182C362.496 346.578 362.406 346.868 362.227 347.054C362.047 347.239 361.812 347.332 361.522 347.332C361.219 347.332 360.981 347.236 360.807 347.045C360.64 346.847 360.557 346.559 360.557 346.182Z" fill="#484848"/>
</g>
<defs>
<clipPath id="clip0_1_2">
<rect width="525" height="353" fill="white"/>
</clipPath>
</defs>
</svg>
